<svg width="282" height="37" viewBox="0 0 282 37" fill="none" xmlns="http://www.w3.org/2000/svg">
<path d="M16.946 36.72C20.29 36.72 23.162 36 25.562 34.56C27.962 33.104 29.802 31.112 31.082 28.584C32.378 26.056 33.026 23.16 33.026 19.896C33.026 19.8 33.018 19.504 33.002 19.008C32.986 18.512 32.962 18.136 32.93 17.88H20.69V22.416H26.786C26.338 25.392 25.298 27.624 23.666 29.112C22.034 30.584 19.914 31.304 17.306 31.272C13.834 31.224 11.226 30.064 9.482 27.792C7.738 25.52 6.874 22.496 6.89 18.72C6.906 16.192 7.298 13.984 8.066 12.096C8.834 10.208 9.986 8.744 11.522 7.704C13.058 6.664 14.986 6.16 17.306 6.192C19.594 6.208 21.482 6.824 22.97 8.04C24.474 9.256 25.554 10.888 26.21 12.936L32.114 12C31.234 8.448 29.546 5.68 27.05 3.696C24.57 1.712 21.202 0.719999 16.946 0.719999C13.874 0.719999 11.114 1.432 8.666 2.856C6.234 4.28 4.306 6.336 2.882 9.024C1.474 11.712 0.770002 14.944 0.770002 18.72C0.770002 22.56 1.49 25.824 2.93 28.512C4.386 31.184 6.338 33.224 8.786 34.632C11.234 36.024 13.954 36.72 16.946 36.72ZM51.0703 36.72C53.5663 36.72 55.8463 36.08 57.9103 34.8C59.9903 33.504 61.5263 31.68 62.5183 29.328L56.8063 27.6C55.6543 30.064 53.6303 31.296 50.7343 31.296C48.7663 31.296 47.2143 30.728 46.0783 29.592C44.9423 28.44 44.2623 26.792 44.0383 24.648H62.8063C63.0303 21.528 62.6863 18.824 61.7743 16.536C60.8623 14.248 59.4623 12.48 57.5743 11.232C55.7023 9.984 53.4223 9.36 50.7343 9.36C48.1903 9.36 45.9503 9.936 44.0143 11.088C42.0783 12.224 40.5663 13.84 39.4783 15.936C38.3903 18.032 37.8463 20.496 37.8463 23.328C37.8463 25.952 38.3983 28.272 39.5023 30.288C40.6223 32.304 42.1743 33.88 44.1583 35.016C46.1423 36.152 48.4463 36.72 51.0703 36.72ZM50.9743 14.424C52.7663 14.424 54.1423 14.896 55.1023 15.84C56.0783 16.768 56.6943 18.248 56.9503 20.28H44.1823C44.8703 16.376 47.1343 14.424 50.9743 14.424ZM84.7932 36V31.152C83.1772 31.392 81.7372 31.456 80.4732 31.344C79.2092 31.232 78.2892 30.696 77.7132 29.736C77.4092 29.24 77.2412 28.6 77.2092 27.816C77.1932 27.016 77.1852 26.104 77.1852 25.08V14.616H84.7932V10.08H77.1852V2.88H71.4252V10.08H66.7212V14.616H71.4252V25.416C71.4252 26.904 71.4412 28.232 71.4732 29.4C71.5052 30.552 71.8172 31.688 72.4092 32.808C73.0812 34.04 74.0652 34.944 75.3612 35.52C76.6572 36.08 78.1212 36.376 79.7532 36.408C81.4012 36.456 83.0812 36.32 84.7932 36ZM115.648 36.72C118.016 36.72 120.232 36.32 122.296 35.52C124.36 34.72 126.024 33.52 127.288 31.92C128.568 30.32 129.208 28.328 129.208 25.944C129.208 24.232 128.888 22.816 128.248 21.696C127.624 20.56 126.816 19.648 125.824 18.96C124.848 18.272 123.832 17.736 122.776 17.352C121.736 16.968 120.792 16.664 119.944 16.44L113.752 14.712C112.984 14.504 112.216 14.248 111.448 13.944C110.68 13.624 110.04 13.2 109.528 12.672C109.016 12.128 108.76 11.432 108.76 10.584C108.76 9.688 109.056 8.904 109.648 8.232C110.256 7.56 111.048 7.04 112.024 6.672C113.016 6.304 114.088 6.136 115.24 6.168C117.016 6.216 118.616 6.736 120.04 7.728C121.464 8.72 122.36 10.128 122.728 11.952L128.944 10.872C128.176 7.672 126.6 5.2 124.216 3.456C121.832 1.696 118.864 0.799998 115.312 0.767999C112.976 0.751998 110.848 1.128 108.928 1.896C107.024 2.648 105.504 3.776 104.368 5.28C103.248 6.784 102.688 8.648 102.688 10.872C102.688 12.392 102.936 13.672 103.432 14.712C103.944 15.736 104.592 16.576 105.376 17.232C106.176 17.888 107.016 18.408 107.896 18.792C108.792 19.176 109.624 19.48 110.392 19.704L119.32 22.344C121.88 23.112 123.16 24.44 123.16 26.328C123.16 27.384 122.816 28.288 122.128 29.04C121.456 29.776 120.576 30.336 119.488 30.72C118.4 31.104 117.24 31.296 116.008 31.296C113.928 31.296 112.088 30.736 110.488 29.616C108.904 28.496 107.856 26.912 107.344 24.864L101.344 25.776C101.712 28.032 102.544 29.984 103.84 31.632C105.152 33.264 106.816 34.52 108.832 35.4C110.864 36.28 113.136 36.72 115.648 36.72ZM151.035 36V31.152C149.419 31.392 147.979 31.456 146.715 31.344C145.451 31.232 144.531 30.696 143.955 29.736C143.651 29.24 143.483 28.6 143.451 27.816C143.435 27.016 143.427 26.104 143.427 25.08V14.616H151.035V10.08H143.427V2.88H137.667V10.08H132.963V14.616H137.667V25.416C137.667 26.904 137.683 28.232 137.715 29.4C137.747 30.552 138.059 31.688 138.651 32.808C139.323 34.04 140.307 34.944 141.603 35.52C142.899 36.08 144.363 36.376 145.995 36.408C147.643 36.456 149.323 36.32 151.035 36ZM165.297 36.72C167.361 36.72 169.113 36.384 170.553 35.712C172.009 35.024 173.289 33.96 174.393 32.52V36H179.457V20.088C179.457 18.968 179.409 17.936 179.313 16.992C179.217 16.032 178.937 15.096 178.473 14.184C177.625 12.472 176.321 11.24 174.561 10.488C172.817 9.736 170.793 9.36 168.489 9.36C165.449 9.36 163.025 10.024 161.217 11.352C159.409 12.68 158.185 14.44 157.545 16.632L162.825 18.288C163.257 16.96 164.017 16.024 165.105 15.48C166.193 14.936 167.321 14.664 168.489 14.664C170.249 14.664 171.545 15.024 172.377 15.744C173.209 16.448 173.681 17.544 173.793 19.032C171.521 19.368 169.409 19.696 167.457 20.016C165.521 20.32 163.873 20.696 162.513 21.144C160.465 21.848 158.969 22.848 158.025 24.144C157.081 25.424 156.609 27.008 156.609 28.896C156.609 30.32 156.937 31.624 157.593 32.808C158.265 33.992 159.249 34.944 160.545 35.664C161.841 36.368 163.425 36.72 165.297 36.72ZM166.449 32.112C165.089 32.112 164.049 31.8 163.329 31.176C162.625 30.552 162.273 29.768 162.273 28.824C162.273 27.976 162.545 27.288 163.089 26.76C163.649 26.232 164.425 25.784 165.417 25.416C166.329 25.112 167.425 24.848 168.705 24.624C169.985 24.384 171.657 24.104 173.721 23.784C173.705 24.392 173.665 25.072 173.601 25.824C173.537 26.56 173.385 27.224 173.145 27.816C172.953 28.408 172.577 29.04 172.017 29.712C171.473 30.384 170.737 30.952 169.809 31.416C168.881 31.88 167.761 32.112 166.449 32.112ZM187.145 36H192.953V22.824C192.953 21.32 193.225 19.984 193.769 18.816C194.329 17.648 195.201 16.744 196.385 16.104C197.185 15.64 198.081 15.368 199.073 15.288C200.065 15.192 200.953 15.256 201.737 15.48V10.08C200.569 9.904 199.369 9.928 198.137 10.152C196.905 10.36 195.809 10.792 194.849 11.448C194.305 11.784 193.817 12.192 193.385 12.672C192.953 13.136 192.577 13.656 192.257 14.232V10.08H187.145V36ZM222.949 36V31.152C221.333 31.392 219.893 31.456 218.629 31.344C217.365 31.232 216.445 30.696 215.869 29.736C215.565 29.24 215.397 28.6 215.365 27.816C215.349 27.016 215.341 26.104 215.341 25.08V14.616H222.949V10.08H215.341V2.88H209.581V10.08H204.877V14.616H209.581V25.416C209.581 26.904 209.597 28.232 209.629 29.4C209.661 30.552 209.973 31.688 210.565 32.808C211.237 34.04 212.221 34.944 213.517 35.52C214.813 36.08 216.277 36.376 217.909 36.408C219.557 36.456 221.237 36.32 222.949 36ZM240.434 36.72C242.93 36.72 245.21 36.08 247.274 34.8C249.354 33.504 250.89 31.68 251.882 29.328L246.17 27.6C245.018 30.064 242.994 31.296 240.098 31.296C238.13 31.296 236.578 30.728 235.442 29.592C234.306 28.44 233.626 26.792 233.402 24.648H252.17C252.394 21.528 252.05 18.824 251.138 16.536C250.226 14.248 248.826 12.48 246.938 11.232C245.066 9.984 242.786 9.36 240.098 9.36C237.554 9.36 235.314 9.936 233.378 11.088C231.442 12.224 229.93 13.84 228.842 15.936C227.754 18.032 227.21 20.496 227.21 23.328C227.21 25.952 227.762 28.272 228.866 30.288C229.986 32.304 231.538 33.88 233.522 35.016C235.506 36.152 237.81 36.72 240.434 36.72ZM240.338 14.424C242.13 14.424 243.506 14.896 244.466 15.84C245.442 16.768 246.058 18.248 246.314 20.28H233.546C234.234 16.376 236.498 14.424 240.338 14.424ZM269.357 36.72C270.893 36.72 272.277 36.488 273.509 36.024C274.741 35.56 275.821 34.912 276.749 34.08V36H281.861V1.44H276.029V11.352C275.165 10.712 274.197 10.224 273.125 9.888C272.053 9.536 270.869 9.36 269.573 9.36C267.125 9.36 264.997 9.952 263.189 11.136C261.397 12.32 260.005 13.944 259.013 16.008C258.021 18.072 257.525 20.416 257.525 23.04C257.525 25.632 258.013 27.96 258.989 30.024C259.965 32.088 261.341 33.72 263.117 34.92C264.893 36.12 266.973 36.72 269.357 36.72ZM270.245 31.536C268.741 31.536 267.501 31.16 266.525 30.408C265.549 29.64 264.821 28.616 264.341 27.336C263.877 26.056 263.645 24.624 263.645 23.04C263.645 21.472 263.885 20.048 264.365 18.768C264.861 17.472 265.605 16.448 266.597 15.696C267.605 14.928 268.885 14.544 270.437 14.544C272.645 14.544 274.245 15.328 275.237 16.896C276.245 18.464 276.749 20.512 276.749 23.04C276.749 25.552 276.245 27.6 275.237 29.184C274.245 30.752 272.581 31.536 270.245 31.536Z" fill="#301269"/>
</svg>
