<svg width="219" height="26" viewBox="0 0 219 26" fill="none" xmlns="http://www.w3.org/2000/svg">
<mask id="path-1-inside-1" fill="white">
<path fill-rule="evenodd" clip-rule="evenodd" d="M7.90641 19.6136C11.4957 19.6136 13.3028 18.4146 13.3279 16.0165C13.3279 15.032 12.6377 14.2495 11.2572 13.6689C10.6548 13.4165 9.95204 13.1893 9.14884 12.9874C8.37075 12.7854 7.58011 12.5709 6.77692 12.3437C5.97373 12.1165 5.17054 11.8641 4.36735 11.5864C3.56416 11.2835 2.86137 10.9049 2.25897 10.4505C0.90359 9.41553 0.213348 8.05243 0.188248 6.36117C0.188248 4.54369 0.87849 3.05437 2.25897 1.8932C3.73986 0.631068 5.72273 0 8.20761 0C10.4666 0 12.4997 0.340777 14.3068 1.02233C14.8841 1.22427 15.1853 1.64078 15.2104 2.27184C15.2104 2.57476 15.0975 2.86505 14.8716 3.14272C14.6708 3.42039 14.4323 3.55922 14.1562 3.55922C13.9052 3.55922 13.5538 3.4835 13.102 3.33204C11.7467 2.85243 10.2156 2.61262 8.5088 2.61262C6.92752 2.61262 5.62234 2.91553 4.59325 3.52136C3.53906 4.15243 3.01197 5.0233 3.01197 6.13398C3.01197 7.29515 3.68966 8.19126 5.04504 8.82233C5.67253 9.1 6.37533 9.33981 7.15342 9.54175C7.93151 9.71845 8.7347 9.90777 9.56299 10.1097C10.3913 10.3117 11.1819 10.5641 11.9349 10.867C12.713 11.1447 13.4158 11.4981 14.0433 11.9272C15.3987 12.9116 16.0889 14.3505 16.114 16.2437C16.114 18.0107 15.3987 19.4495 13.968 20.5602C12.5122 21.6961 10.5921 22.2641 8.20761 22.2641C5.59724 22.2641 3.15001 21.7718 0.86594 20.7874C0.640043 20.6864 0.439245 20.5223 0.263547 20.2951C0.087849 20.0427 0 19.765 0 19.4621C0 19.1592 0.112949 18.8816 0.338846 18.6291C0.564744 18.3515 0.815741 18.2126 1.09184 18.2126C1.39303 18.2126 1.75698 18.3136 2.18367 18.5155C2.63547 18.7175 3.36336 18.9573 4.36735 19.235C5.37134 19.4874 6.55102 19.6136 7.90641 19.6136ZM27.4917 19.765C28.0439 19.765 28.433 19.7272 28.6589 19.6515C28.9098 19.5505 29.1734 19.5 29.4495 19.5C29.7256 19.5 29.9766 19.6136 30.2025 19.8408C30.4284 20.0427 30.5413 20.3583 30.5413 20.7874C30.5413 21.1913 30.3405 21.4816 29.9389 21.6583C29.0604 22.0621 28.3075 22.2641 27.68 22.2641C27.0525 22.2641 26.4752 22.2262 25.9481 22.1505C25.4461 22.1 24.9566 21.9359 24.4797 21.6583C23.3503 21.0019 22.7855 19.8408 22.7855 18.1748V8.55728H20.6018C20.2253 8.55728 20.0245 8.35534 19.9995 7.95146C19.9995 7.77476 20.0998 7.61068 20.3006 7.45922L24.4797 3.33204C24.6554 3.15534 24.8311 3.06699 25.0068 3.06699C25.1825 3.04175 25.3206 3.09223 25.421 3.21845C25.5214 3.34466 25.5716 3.49612 25.5716 3.67282V6.13398H29.073C29.4244 6.13398 29.713 6.24757 29.9389 6.47476C30.1648 6.70194 30.2778 6.99223 30.2778 7.34563C30.2778 7.69903 30.1648 7.98932 29.9389 8.21651C29.713 8.44369 29.4244 8.55728 29.073 8.55728H25.5716V17.9476C25.5716 18.7301 25.81 19.2602 26.2869 19.5379C26.5379 19.6893 26.9395 19.765 27.4917 19.765ZM36.0833 6.92913C37.8152 6.17184 39.6099 5.80583 41.4672 5.83107C43.5505 5.83107 45.1694 6.47476 46.324 7.76214C47.3531 8.87282 47.8802 10.2612 47.9053 11.9272V20.7117C47.9053 21.0903 47.7547 21.4184 47.4535 21.6961C47.1774 21.9738 46.8386 22.1126 46.437 22.1126C46.0605 22.1126 45.7342 21.9738 45.4581 21.6961C45.182 21.4184 45.0439 21.0903 45.0439 20.7117V19.9165C44.4917 20.4971 43.7513 21.0398 42.8226 21.5447C41.8939 22.0243 40.7142 22.2641 39.2836 22.2641C37.8529 22.2641 36.6606 21.8476 35.7068 21.0146C34.728 20.1563 34.2385 19.033 34.2385 17.6447C34.2385 16.1049 34.8158 14.8932 35.9704 14.0097C37.2254 13.0505 39.0075 12.5835 41.3166 12.6087H45.0439V12.3437C45.0439 10.9553 44.7051 9.97087 44.0274 9.39029C43.3748 8.80971 42.3457 8.51942 40.9401 8.51942C39.7605 8.51942 38.3925 8.75922 36.8363 9.23883C36.6857 9.28932 36.4975 9.31456 36.2716 9.31456C36.0708 9.31456 35.8574 9.21359 35.6315 9.01165C35.4057 8.78447 35.2802 8.44369 35.2551 7.98932C35.2551 7.50971 35.5312 7.15631 36.0833 6.92913ZM37.0622 17.3039C37.0622 18.9699 38.1541 19.7903 40.3377 19.765C41.2915 19.765 42.1826 19.5379 43.0109 19.0835C43.8643 18.6039 44.5419 18.0738 45.0439 17.4932V14.8806H41.7308C40.275 14.8806 39.133 15.0699 38.3047 15.4485C37.4764 15.8019 37.0622 16.4204 37.0622 17.3039ZM57.3252 8.7466C58.781 6.80291 60.3999 5.83107 62.182 5.83107H62.3326C62.7091 5.83107 63.0229 5.9699 63.2739 6.24757C63.55 6.5 63.688 6.82816 63.688 7.23204C63.688 7.63592 63.55 7.96408 63.2739 8.21651C62.9978 8.44369 62.6589 8.55728 62.2573 8.55728H62.1067C61.0776 8.55728 60.1615 8.80971 59.3583 9.31456C58.5551 9.81942 57.8774 10.4757 57.3252 11.2835V20.7117C57.3252 21.0903 57.1872 21.4184 56.9111 21.6961C56.635 21.9738 56.3087 22.1126 55.9322 22.1126C55.5557 22.1126 55.2294 21.9738 54.9533 21.6961C54.6772 21.4184 54.5392 21.0903 54.5392 20.7117V7.42136C54.5392 7.04272 54.6647 6.71456 54.9157 6.43689C55.1918 6.13398 55.5306 5.98252 55.9322 5.98252C56.3087 5.98252 56.635 6.12136 56.9111 6.39903C57.1872 6.6767 57.3252 7.01748 57.3252 7.42136V8.7466ZM74.0868 19.765C74.639 19.765 75.0281 19.7272 75.254 19.6515C75.505 19.5505 75.7685 19.5 76.0446 19.5C76.3207 19.5 76.5717 19.6136 76.7976 19.8408C77.0235 20.0427 77.1364 20.3583 77.1364 20.7874C77.1364 21.1913 76.9356 21.4816 76.534 21.6583C75.6556 22.0621 74.9026 22.2641 74.2751 22.2641C73.6476 22.2641 73.0703 22.2262 72.5432 22.1505C72.0412 22.1 71.5518 21.9359 71.0749 21.6583C69.9454 21.0019 69.3806 19.8408 69.3806 18.1748V8.55728H67.1969C66.8204 8.55728 66.6197 8.35534 66.5946 7.95146C66.5946 7.77476 66.695 7.61068 66.8958 7.45922L71.0749 3.33204C71.2505 3.15534 71.4262 3.06699 71.6019 3.06699C71.7776 3.04175 71.9157 3.09223 72.0161 3.21845C72.1165 3.34466 72.1667 3.49612 72.1667 3.67282V6.13398H75.6681C76.0195 6.13398 76.3081 6.24757 76.534 6.47476C76.7599 6.70194 76.8729 6.99223 76.8729 7.34563C76.8729 7.69903 76.7599 7.98932 76.534 8.21651C76.3081 8.44369 76.0195 8.55728 75.6681 8.55728H72.1667V17.9476C72.1667 18.7301 72.4051 19.2602 72.882 19.5379C73.133 19.6893 73.5346 19.765 74.0868 19.765ZM89.5683 19.6136C90.7229 19.6136 91.8147 19.3359 92.8438 18.7806C93.1952 18.5786 93.5215 18.4777 93.8227 18.4777C94.1239 18.4524 94.3875 18.5786 94.6134 18.8563C94.8393 19.134 94.9522 19.4621 94.9522 19.8408C94.9522 20.1942 94.7138 20.5223 94.2369 20.8252C92.7811 21.7845 91.1496 22.2641 89.3424 22.2641C87.0583 22.2641 85.1257 21.5447 83.5444 20.1058C81.8878 18.566 81.0721 16.5466 81.0972 14.0476C81.0972 11.5485 81.9129 9.52913 83.5444 7.98932C85.1006 6.52524 87.0332 5.80583 89.3424 5.83107C90.5723 5.83107 91.5763 5.99515 92.3544 6.3233C93.1576 6.62621 93.7851 6.94175 94.2369 7.2699C94.7138 7.57282 94.9522 7.91359 94.9522 8.29223C94.9522 8.67087 94.8393 8.98641 94.6134 9.23883C94.3875 9.49126 94.1616 9.61748 93.9357 9.61748C93.5843 9.61748 93.2203 9.5165 92.8438 9.31456C91.7896 8.73398 90.6978 8.45631 89.5683 8.48155C87.7611 8.48155 86.3556 8.99903 85.3516 10.034C84.3727 11.0437 83.8832 12.3816 83.8832 14.0476C83.8832 15.7136 84.3727 17.0641 85.3516 18.099C86.3556 19.1087 87.7611 19.6136 89.5683 19.6136ZM124.52 13.8835C124.52 20.5753 119.126 26 112.472 26C105.818 26 100.424 20.5753 100.424 13.8835C100.424 7.19173 105.818 1.76699 112.472 1.76699C119.126 1.76699 124.52 7.19173 124.52 13.8835ZM117.322 18.2839C116.144 19.6461 114.408 20.5072 112.472 20.5072C110.513 20.5072 108.759 19.6256 107.58 18.2355C108.285 17.9221 108.777 17.2126 108.777 16.3876C108.777 15.2723 107.878 14.3682 106.769 14.3682C106.52 14.3682 106.282 14.4137 106.062 14.497C106.051 14.3477 106.046 14.197 106.046 14.045C106.046 11.0701 108.045 8.56462 110.766 7.81309C110.726 7.97202 110.705 8.13847 110.705 8.3099C110.705 9.4252 111.604 10.3293 112.713 10.3293C113.822 10.3293 114.721 9.4252 114.721 8.3099C114.721 8.19749 114.712 8.08722 114.694 7.97982C117.148 8.88936 118.897 11.2617 118.897 14.045C118.897 14.2196 118.89 14.3926 118.877 14.5637C118.615 14.4383 118.323 14.3682 118.014 14.3682C116.905 14.3682 116.006 15.2723 116.006 16.3876C116.006 17.2583 116.554 18.0004 117.322 18.2839ZM117.322 18.2839C117.538 18.3635 117.771 18.407 118.014 18.407C119.123 18.407 120.022 17.5029 120.022 16.3876C120.022 15.583 119.554 14.8884 118.877 14.5637C118.765 15.982 118.198 17.2714 117.322 18.2839ZM114.694 7.97982C114.537 7.02154 113.71 6.29048 112.713 6.29048C111.774 6.29048 110.986 6.93802 110.766 7.81309C111.309 7.66304 111.881 7.58291 112.472 7.58291C113.253 7.58291 114.002 7.7231 114.694 7.97982ZM106.062 14.497C105.302 14.7848 104.761 15.5227 104.761 16.3876C104.761 17.5029 105.66 18.407 106.769 18.407C107.058 18.407 107.332 18.3458 107.58 18.2355C106.715 17.2144 106.159 15.919 106.062 14.497ZM133.769 11.435C135.35 9.44078 137.044 8.44369 138.852 8.44369C140.056 8.44369 140.922 8.78447 141.449 9.46602C141.977 10.1223 142.24 11.0311 142.24 12.1922V20.7117C142.24 21.0903 142.378 21.4184 142.654 21.6961C142.93 21.9738 143.257 22.1126 143.633 22.1126C144.01 22.1126 144.336 21.9738 144.612 21.6961C144.888 21.4184 145.026 21.0903 145.026 20.7117V11.8893C145.026 10.1981 144.549 8.78447 143.595 7.64854C143.119 7.06796 142.541 6.62621 141.864 6.3233C141.186 5.99515 140.307 5.83107 139.228 5.83107C138.174 5.83107 137.07 6.17184 135.915 6.8534C135.313 7.23204 134.597 7.85048 133.769 8.70874V7.42136C133.769 6.99223 133.631 6.65146 133.355 6.39903C133.079 6.12136 132.752 5.98252 132.376 5.98252C131.974 5.98252 131.635 6.12136 131.359 6.39903C131.108 6.6767 130.983 7.01748 130.983 7.42136V20.7117C130.983 21.0903 131.121 21.4184 131.397 21.6961C131.673 21.9738 131.999 22.1126 132.376 22.1126C132.752 22.1126 133.079 21.9738 133.355 21.6961C133.631 21.4184 133.769 21.0903 133.769 20.7117V11.435ZM154.446 11.435C156.027 9.44078 157.722 8.44369 159.529 8.44369C160.734 8.44369 161.599 8.78447 162.127 9.46602C162.654 10.1223 162.917 11.0311 162.917 12.1922V20.7117C162.917 21.0903 163.055 21.4184 163.331 21.6961C163.607 21.9738 163.934 22.1126 164.31 22.1126C164.687 22.1126 165.013 21.9738 165.289 21.6961C165.565 21.4184 165.703 21.0903 165.703 20.7117V11.8893C165.703 10.1981 165.226 8.78447 164.273 7.64854C163.796 7.06796 163.218 6.62621 162.541 6.3233C161.863 5.99515 160.985 5.83107 159.905 5.83107C158.851 5.83107 157.747 6.17184 156.592 6.8534C155.99 7.23204 155.274 7.85048 154.446 8.70874V7.42136C154.446 6.99223 154.308 6.65146 154.032 6.39903C153.756 6.12136 153.43 5.98252 153.053 5.98252C152.651 5.98252 152.313 6.12136 152.036 6.39903C151.785 6.6767 151.66 7.01748 151.66 7.42136V20.7117C151.66 21.0903 151.798 21.4184 152.074 21.6961C152.35 21.9738 152.677 22.1126 153.053 22.1126C153.43 22.1126 153.756 21.9738 154.032 21.6961C154.308 21.4184 154.446 21.0903 154.446 20.7117V11.435ZM175.801 18.4019C174.922 17.5689 174.395 16.4583 174.22 15.0699H184.724C185.125 15.0699 185.452 14.9311 185.703 14.6534C185.979 14.3757 186.117 14.0476 186.117 13.6689C186.117 11.4728 185.489 9.64272 184.234 8.17864C182.904 6.61359 181.084 5.83107 178.775 5.83107C176.366 5.83107 174.496 6.6767 173.165 8.36796C171.986 9.88252 171.396 11.7757 171.396 14.0476C171.396 16.6728 172.086 18.7049 173.467 20.1437C174.872 21.5573 176.843 22.2641 179.378 22.2641C180.607 22.2641 181.687 22.1379 182.615 21.8854C183.017 21.7592 183.394 21.6078 183.745 21.4311C184.096 21.2544 184.485 21.0524 184.912 20.8252C185.364 20.5981 185.59 20.2068 185.59 19.6515C185.59 19.3738 185.464 19.1214 185.213 18.8942C184.987 18.667 184.736 18.566 184.46 18.5913C184.184 18.5913 183.87 18.6796 183.519 18.8563C182.415 19.3612 181.072 19.6136 179.491 19.6136C177.934 19.6136 176.704 19.2097 175.801 18.4019ZM174.784 10.6777C175.613 9.03689 176.943 8.21651 178.775 8.21651C179.93 8.21651 180.909 8.5699 181.712 9.2767C182.716 10.135 183.256 11.2961 183.331 12.7602H174.22C174.295 11.9524 174.483 11.2583 174.784 10.6777ZM202.54 18.7806C201.511 19.3359 200.419 19.6136 199.264 19.6136C197.457 19.6136 196.051 19.1087 195.047 18.099C194.068 17.0641 193.579 15.7136 193.579 14.0476C193.579 12.3816 194.068 11.0437 195.047 10.034C196.051 8.99903 197.457 8.48155 199.264 8.48155C200.394 8.45631 201.485 8.73398 202.54 9.31456C202.916 9.5165 203.28 9.61748 203.631 9.61748C203.857 9.61748 204.083 9.49126 204.309 9.23883C204.535 8.98641 204.648 8.67087 204.648 8.29223C204.648 7.91359 204.41 7.57282 203.933 7.2699C203.481 6.94175 202.853 6.62621 202.05 6.3233C201.272 5.99515 200.268 5.83107 199.038 5.83107C196.729 5.80583 194.796 6.52524 193.24 7.98932C191.609 9.52913 190.793 11.5485 190.793 14.0476C190.768 16.5466 191.584 18.566 193.24 20.1058C194.821 21.5447 196.754 22.2641 199.038 22.2641C200.845 22.2641 202.477 21.7845 203.933 20.8252C204.41 20.5223 204.648 20.1942 204.648 19.8408C204.648 19.4621 204.535 19.134 204.309 18.8563C204.083 18.5786 203.82 18.4524 203.518 18.4777C203.217 18.4777 202.891 18.5786 202.54 18.7806ZM217.118 19.6515C216.892 19.7272 216.503 19.765 215.95 19.765C215.398 19.765 214.997 19.6893 214.746 19.5379C214.269 19.2602 214.03 18.7301 214.03 17.9476V8.55728H217.532C217.883 8.55728 218.172 8.44369 218.398 8.21651C218.624 7.98932 218.736 7.69903 218.736 7.34563C218.736 6.99223 218.624 6.70194 218.398 6.47476C218.172 6.24757 217.883 6.13398 217.532 6.13398H214.03V3.67282C214.03 3.49612 213.98 3.34466 213.88 3.21845C213.779 3.09223 213.641 3.04175 213.466 3.06699C213.29 3.06699 213.114 3.15534 212.938 3.33204L208.759 7.45922C208.559 7.61068 208.458 7.77476 208.458 7.95146C208.483 8.35534 208.684 8.55728 209.061 8.55728H211.244V18.1748C211.244 19.8408 211.809 21.0019 212.938 21.6583C213.415 21.9359 213.905 22.1 214.407 22.1505C214.934 22.2262 215.511 22.2641 216.139 22.2641C216.766 22.2641 217.519 22.0621 218.398 21.6583C218.799 21.4816 219 21.1913 219 20.7874C219 20.3583 218.887 20.0427 218.661 19.8408C218.435 19.6136 218.184 19.5 217.908 19.5C217.632 19.5 217.369 19.5505 217.118 19.6515Z"/>
</mask>
<path fill-rule="evenodd" clip-rule="evenodd" d="M7.90641 19.6136C11.4957 19.6136 13.3028 18.4146 13.3279 16.0165C13.3279 15.032 12.6377 14.2495 11.2572 13.6689C10.6548 13.4165 9.95204 13.1893 9.14884 12.9874C8.37075 12.7854 7.58011 12.5709 6.77692 12.3437C5.97373 12.1165 5.17054 11.8641 4.36735 11.5864C3.56416 11.2835 2.86137 10.9049 2.25897 10.4505C0.90359 9.41553 0.213348 8.05243 0.188248 6.36117C0.188248 4.54369 0.87849 3.05437 2.25897 1.8932C3.73986 0.631068 5.72273 0 8.20761 0C10.4666 0 12.4997 0.340777 14.3068 1.02233C14.8841 1.22427 15.1853 1.64078 15.2104 2.27184C15.2104 2.57476 15.0975 2.86505 14.8716 3.14272C14.6708 3.42039 14.4323 3.55922 14.1562 3.55922C13.9052 3.55922 13.5538 3.4835 13.102 3.33204C11.7467 2.85243 10.2156 2.61262 8.5088 2.61262C6.92752 2.61262 5.62234 2.91553 4.59325 3.52136C3.53906 4.15243 3.01197 5.0233 3.01197 6.13398C3.01197 7.29515 3.68966 8.19126 5.04504 8.82233C5.67253 9.1 6.37533 9.33981 7.15342 9.54175C7.93151 9.71845 8.7347 9.90777 9.56299 10.1097C10.3913 10.3117 11.1819 10.5641 11.9349 10.867C12.713 11.1447 13.4158 11.4981 14.0433 11.9272C15.3987 12.9116 16.0889 14.3505 16.114 16.2437C16.114 18.0107 15.3987 19.4495 13.968 20.5602C12.5122 21.6961 10.5921 22.2641 8.20761 22.2641C5.59724 22.2641 3.15001 21.7718 0.86594 20.7874C0.640043 20.6864 0.439245 20.5223 0.263547 20.2951C0.087849 20.0427 0 19.765 0 19.4621C0 19.1592 0.112949 18.8816 0.338846 18.6291C0.564744 18.3515 0.815741 18.2126 1.09184 18.2126C1.39303 18.2126 1.75698 18.3136 2.18367 18.5155C2.63547 18.7175 3.36336 18.9573 4.36735 19.235C5.37134 19.4874 6.55102 19.6136 7.90641 19.6136ZM27.4917 19.765C28.0439 19.765 28.433 19.7272 28.6589 19.6515C28.9098 19.5505 29.1734 19.5 29.4495 19.5C29.7256 19.5 29.9766 19.6136 30.2025 19.8408C30.4284 20.0427 30.5413 20.3583 30.5413 20.7874C30.5413 21.1913 30.3405 21.4816 29.9389 21.6583C29.0604 22.0621 28.3075 22.2641 27.68 22.2641C27.0525 22.2641 26.4752 22.2262 25.9481 22.1505C25.4461 22.1 24.9566 21.9359 24.4797 21.6583C23.3503 21.0019 22.7855 19.8408 22.7855 18.1748V8.55728H20.6018C20.2253 8.55728 20.0245 8.35534 19.9995 7.95146C19.9995 7.77476 20.0998 7.61068 20.3006 7.45922L24.4797 3.33204C24.6554 3.15534 24.8311 3.06699 25.0068 3.06699C25.1825 3.04175 25.3206 3.09223 25.421 3.21845C25.5214 3.34466 25.5716 3.49612 25.5716 3.67282V6.13398H29.073C29.4244 6.13398 29.713 6.24757 29.9389 6.47476C30.1648 6.70194 30.2778 6.99223 30.2778 7.34563C30.2778 7.69903 30.1648 7.98932 29.9389 8.21651C29.713 8.44369 29.4244 8.55728 29.073 8.55728H25.5716V17.9476C25.5716 18.7301 25.81 19.2602 26.2869 19.5379C26.5379 19.6893 26.9395 19.765 27.4917 19.765ZM36.0833 6.92913C37.8152 6.17184 39.6099 5.80583 41.4672 5.83107C43.5505 5.83107 45.1694 6.47476 46.324 7.76214C47.3531 8.87282 47.8802 10.2612 47.9053 11.9272V20.7117C47.9053 21.0903 47.7547 21.4184 47.4535 21.6961C47.1774 21.9738 46.8386 22.1126 46.437 22.1126C46.0605 22.1126 45.7342 21.9738 45.4581 21.6961C45.182 21.4184 45.0439 21.0903 45.0439 20.7117V19.9165C44.4917 20.4971 43.7513 21.0398 42.8226 21.5447C41.8939 22.0243 40.7142 22.2641 39.2836 22.2641C37.8529 22.2641 36.6606 21.8476 35.7068 21.0146C34.728 20.1563 34.2385 19.033 34.2385 17.6447C34.2385 16.1049 34.8158 14.8932 35.9704 14.0097C37.2254 13.0505 39.0075 12.5835 41.3166 12.6087H45.0439V12.3437C45.0439 10.9553 44.7051 9.97087 44.0274 9.39029C43.3748 8.80971 42.3457 8.51942 40.9401 8.51942C39.7605 8.51942 38.3925 8.75922 36.8363 9.23883C36.6857 9.28932 36.4975 9.31456 36.2716 9.31456C36.0708 9.31456 35.8574 9.21359 35.6315 9.01165C35.4057 8.78447 35.2802 8.44369 35.2551 7.98932C35.2551 7.50971 35.5312 7.15631 36.0833 6.92913ZM37.0622 17.3039C37.0622 18.9699 38.1541 19.7903 40.3377 19.765C41.2915 19.765 42.1826 19.5379 43.0109 19.0835C43.8643 18.6039 44.5419 18.0738 45.0439 17.4932V14.8806H41.7308C40.275 14.8806 39.133 15.0699 38.3047 15.4485C37.4764 15.8019 37.0622 16.4204 37.0622 17.3039ZM57.3252 8.7466C58.781 6.80291 60.3999 5.83107 62.182 5.83107H62.3326C62.7091 5.83107 63.0229 5.9699 63.2739 6.24757C63.55 6.5 63.688 6.82816 63.688 7.23204C63.688 7.63592 63.55 7.96408 63.2739 8.21651C62.9978 8.44369 62.6589 8.55728 62.2573 8.55728H62.1067C61.0776 8.55728 60.1615 8.80971 59.3583 9.31456C58.5551 9.81942 57.8774 10.4757 57.3252 11.2835V20.7117C57.3252 21.0903 57.1872 21.4184 56.9111 21.6961C56.635 21.9738 56.3087 22.1126 55.9322 22.1126C55.5557 22.1126 55.2294 21.9738 54.9533 21.6961C54.6772 21.4184 54.5392 21.0903 54.5392 20.7117V7.42136C54.5392 7.04272 54.6647 6.71456 54.9157 6.43689C55.1918 6.13398 55.5306 5.98252 55.9322 5.98252C56.3087 5.98252 56.635 6.12136 56.9111 6.39903C57.1872 6.6767 57.3252 7.01748 57.3252 7.42136V8.7466ZM74.0868 19.765C74.639 19.765 75.0281 19.7272 75.254 19.6515C75.505 19.5505 75.7685 19.5 76.0446 19.5C76.3207 19.5 76.5717 19.6136 76.7976 19.8408C77.0235 20.0427 77.1364 20.3583 77.1364 20.7874C77.1364 21.1913 76.9356 21.4816 76.534 21.6583C75.6556 22.0621 74.9026 22.2641 74.2751 22.2641C73.6476 22.2641 73.0703 22.2262 72.5432 22.1505C72.0412 22.1 71.5518 21.9359 71.0749 21.6583C69.9454 21.0019 69.3806 19.8408 69.3806 18.1748V8.55728H67.1969C66.8204 8.55728 66.6197 8.35534 66.5946 7.95146C66.5946 7.77476 66.695 7.61068 66.8958 7.45922L71.0749 3.33204C71.2505 3.15534 71.4262 3.06699 71.6019 3.06699C71.7776 3.04175 71.9157 3.09223 72.0161 3.21845C72.1165 3.34466 72.1667 3.49612 72.1667 3.67282V6.13398H75.6681C76.0195 6.13398 76.3081 6.24757 76.534 6.47476C76.7599 6.70194 76.8729 6.99223 76.8729 7.34563C76.8729 7.69903 76.7599 7.98932 76.534 8.21651C76.3081 8.44369 76.0195 8.55728 75.6681 8.55728H72.1667V17.9476C72.1667 18.7301 72.4051 19.2602 72.882 19.5379C73.133 19.6893 73.5346 19.765 74.0868 19.765ZM89.5683 19.6136C90.7229 19.6136 91.8147 19.3359 92.8438 18.7806C93.1952 18.5786 93.5215 18.4777 93.8227 18.4777C94.1239 18.4524 94.3875 18.5786 94.6134 18.8563C94.8393 19.134 94.9522 19.4621 94.9522 19.8408C94.9522 20.1942 94.7138 20.5223 94.2369 20.8252C92.7811 21.7845 91.1496 22.2641 89.3424 22.2641C87.0583 22.2641 85.1257 21.5447 83.5444 20.1058C81.8878 18.566 81.0721 16.5466 81.0972 14.0476C81.0972 11.5485 81.9129 9.52913 83.5444 7.98932C85.1006 6.52524 87.0332 5.80583 89.3424 5.83107C90.5723 5.83107 91.5763 5.99515 92.3544 6.3233C93.1576 6.62621 93.7851 6.94175 94.2369 7.2699C94.7138 7.57282 94.9522 7.91359 94.9522 8.29223C94.9522 8.67087 94.8393 8.98641 94.6134 9.23883C94.3875 9.49126 94.1616 9.61748 93.9357 9.61748C93.5843 9.61748 93.2203 9.5165 92.8438 9.31456C91.7896 8.73398 90.6978 8.45631 89.5683 8.48155C87.7611 8.48155 86.3556 8.99903 85.3516 10.034C84.3727 11.0437 83.8832 12.3816 83.8832 14.0476C83.8832 15.7136 84.3727 17.0641 85.3516 18.099C86.3556 19.1087 87.7611 19.6136 89.5683 19.6136ZM124.52 13.8835C124.52 20.5753 119.126 26 112.472 26C105.818 26 100.424 20.5753 100.424 13.8835C100.424 7.19173 105.818 1.76699 112.472 1.76699C119.126 1.76699 124.52 7.19173 124.52 13.8835ZM117.322 18.2839C116.144 19.6461 114.408 20.5072 112.472 20.5072C110.513 20.5072 108.759 19.6256 107.58 18.2355C108.285 17.9221 108.777 17.2126 108.777 16.3876C108.777 15.2723 107.878 14.3682 106.769 14.3682C106.52 14.3682 106.282 14.4137 106.062 14.497C106.051 14.3477 106.046 14.197 106.046 14.045C106.046 11.0701 108.045 8.56462 110.766 7.81309C110.726 7.97202 110.705 8.13847 110.705 8.3099C110.705 9.4252 111.604 10.3293 112.713 10.3293C113.822 10.3293 114.721 9.4252 114.721 8.3099C114.721 8.19749 114.712 8.08722 114.694 7.97982C117.148 8.88936 118.897 11.2617 118.897 14.045C118.897 14.2196 118.89 14.3926 118.877 14.5637C118.615 14.4383 118.323 14.3682 118.014 14.3682C116.905 14.3682 116.006 15.2723 116.006 16.3876C116.006 17.2583 116.554 18.0004 117.322 18.2839ZM117.322 18.2839C117.538 18.3635 117.771 18.407 118.014 18.407C119.123 18.407 120.022 17.5029 120.022 16.3876C120.022 15.583 119.554 14.8884 118.877 14.5637C118.765 15.982 118.198 17.2714 117.322 18.2839ZM114.694 7.97982C114.537 7.02154 113.71 6.29048 112.713 6.29048C111.774 6.29048 110.986 6.93802 110.766 7.81309C111.309 7.66304 111.881 7.58291 112.472 7.58291C113.253 7.58291 114.002 7.7231 114.694 7.97982ZM106.062 14.497C105.302 14.7848 104.761 15.5227 104.761 16.3876C104.761 17.5029 105.66 18.407 106.769 18.407C107.058 18.407 107.332 18.3458 107.58 18.2355C106.715 17.2144 106.159 15.919 106.062 14.497ZM133.769 11.435C135.35 9.44078 137.044 8.44369 138.852 8.44369C140.056 8.44369 140.922 8.78447 141.449 9.46602C141.977 10.1223 142.24 11.0311 142.24 12.1922V20.7117C142.24 21.0903 142.378 21.4184 142.654 21.6961C142.93 21.9738 143.257 22.1126 143.633 22.1126C144.01 22.1126 144.336 21.9738 144.612 21.6961C144.888 21.4184 145.026 21.0903 145.026 20.7117V11.8893C145.026 10.1981 144.549 8.78447 143.595 7.64854C143.119 7.06796 142.541 6.62621 141.864 6.3233C141.186 5.99515 140.307 5.83107 139.228 5.83107C138.174 5.83107 137.07 6.17184 135.915 6.8534C135.313 7.23204 134.597 7.85048 133.769 8.70874V7.42136C133.769 6.99223 133.631 6.65146 133.355 6.39903C133.079 6.12136 132.752 5.98252 132.376 5.98252C131.974 5.98252 131.635 6.12136 131.359 6.39903C131.108 6.6767 130.983 7.01748 130.983 7.42136V20.7117C130.983 21.0903 131.121 21.4184 131.397 21.6961C131.673 21.9738 131.999 22.1126 132.376 22.1126C132.752 22.1126 133.079 21.9738 133.355 21.6961C133.631 21.4184 133.769 21.0903 133.769 20.7117V11.435ZM154.446 11.435C156.027 9.44078 157.722 8.44369 159.529 8.44369C160.734 8.44369 161.599 8.78447 162.127 9.46602C162.654 10.1223 162.917 11.0311 162.917 12.1922V20.7117C162.917 21.0903 163.055 21.4184 163.331 21.6961C163.607 21.9738 163.934 22.1126 164.31 22.1126C164.687 22.1126 165.013 21.9738 165.289 21.6961C165.565 21.4184 165.703 21.0903 165.703 20.7117V11.8893C165.703 10.1981 165.226 8.78447 164.273 7.64854C163.796 7.06796 163.218 6.62621 162.541 6.3233C161.863 5.99515 160.985 5.83107 159.905 5.83107C158.851 5.83107 157.747 6.17184 156.592 6.8534C155.99 7.23204 155.274 7.85048 154.446 8.70874V7.42136C154.446 6.99223 154.308 6.65146 154.032 6.39903C153.756 6.12136 153.43 5.98252 153.053 5.98252C152.651 5.98252 152.313 6.12136 152.036 6.39903C151.785 6.6767 151.66 7.01748 151.66 7.42136V20.7117C151.66 21.0903 151.798 21.4184 152.074 21.6961C152.35 21.9738 152.677 22.1126 153.053 22.1126C153.43 22.1126 153.756 21.9738 154.032 21.6961C154.308 21.4184 154.446 21.0903 154.446 20.7117V11.435ZM175.801 18.4019C174.922 17.5689 174.395 16.4583 174.22 15.0699H184.724C185.125 15.0699 185.452 14.9311 185.703 14.6534C185.979 14.3757 186.117 14.0476 186.117 13.6689C186.117 11.4728 185.489 9.64272 184.234 8.17864C182.904 6.61359 181.084 5.83107 178.775 5.83107C176.366 5.83107 174.496 6.6767 173.165 8.36796C171.986 9.88252 171.396 11.7757 171.396 14.0476C171.396 16.6728 172.086 18.7049 173.467 20.1437C174.872 21.5573 176.843 22.2641 179.378 22.2641C180.607 22.2641 181.687 22.1379 182.615 21.8854C183.017 21.7592 183.394 21.6078 183.745 21.4311C184.096 21.2544 184.485 21.0524 184.912 20.8252C185.364 20.5981 185.59 20.2068 185.59 19.6515C185.59 19.3738 185.464 19.1214 185.213 18.8942C184.987 18.667 184.736 18.566 184.46 18.5913C184.184 18.5913 183.87 18.6796 183.519 18.8563C182.415 19.3612 181.072 19.6136 179.491 19.6136C177.934 19.6136 176.704 19.2097 175.801 18.4019ZM174.784 10.6777C175.613 9.03689 176.943 8.21651 178.775 8.21651C179.93 8.21651 180.909 8.5699 181.712 9.2767C182.716 10.135 183.256 11.2961 183.331 12.7602H174.22C174.295 11.9524 174.483 11.2583 174.784 10.6777ZM202.54 18.7806C201.511 19.3359 200.419 19.6136 199.264 19.6136C197.457 19.6136 196.051 19.1087 195.047 18.099C194.068 17.0641 193.579 15.7136 193.579 14.0476C193.579 12.3816 194.068 11.0437 195.047 10.034C196.051 8.99903 197.457 8.48155 199.264 8.48155C200.394 8.45631 201.485 8.73398 202.54 9.31456C202.916 9.5165 203.28 9.61748 203.631 9.61748C203.857 9.61748 204.083 9.49126 204.309 9.23883C204.535 8.98641 204.648 8.67087 204.648 8.29223C204.648 7.91359 204.41 7.57282 203.933 7.2699C203.481 6.94175 202.853 6.62621 202.05 6.3233C201.272 5.99515 200.268 5.83107 199.038 5.83107C196.729 5.80583 194.796 6.52524 193.24 7.98932C191.609 9.52913 190.793 11.5485 190.793 14.0476C190.768 16.5466 191.584 18.566 193.24 20.1058C194.821 21.5447 196.754 22.2641 199.038 22.2641C200.845 22.2641 202.477 21.7845 203.933 20.8252C204.41 20.5223 204.648 20.1942 204.648 19.8408C204.648 19.4621 204.535 19.134 204.309 18.8563C204.083 18.5786 203.82 18.4524 203.518 18.4777C203.217 18.4777 202.891 18.5786 202.54 18.7806ZM217.118 19.6515C216.892 19.7272 216.503 19.765 215.95 19.765C215.398 19.765 214.997 19.6893 214.746 19.5379C214.269 19.2602 214.03 18.7301 214.03 17.9476V8.55728H217.532C217.883 8.55728 218.172 8.44369 218.398 8.21651C218.624 7.98932 218.736 7.69903 218.736 7.34563C218.736 6.99223 218.624 6.70194 218.398 6.47476C218.172 6.24757 217.883 6.13398 217.532 6.13398H214.03V3.67282C214.03 3.49612 213.98 3.34466 213.88 3.21845C213.779 3.09223 213.641 3.04175 213.466 3.06699C213.29 3.06699 213.114 3.15534 212.938 3.33204L208.759 7.45922C208.559 7.61068 208.458 7.77476 208.458 7.95146C208.483 8.35534 208.684 8.55728 209.061 8.55728H211.244V18.1748C211.244 19.8408 211.809 21.0019 212.938 21.6583C213.415 21.9359 213.905 22.1 214.407 22.1505C214.934 22.2262 215.511 22.2641 216.139 22.2641C216.766 22.2641 217.519 22.0621 218.398 21.6583C218.799 21.4816 219 21.1913 219 20.7874C219 20.3583 218.887 20.0427 218.661 19.8408C218.435 19.6136 218.184 19.5 217.908 19.5C217.632 19.5 217.369 19.5505 217.118 19.6515Z" fill="#301269"/>
<path d="M13.3279 16.0165L18.3277 16.0688L18.3279 16.0427V16.0165H13.3279ZM11.2572 13.6689L13.1956 9.05995L13.1896 9.05744L11.2572 13.6689ZM9.14884 12.9874L7.89278 17.827L7.91121 17.8318L7.92967 17.8365L9.14884 12.9874ZM4.36735 11.5864L2.60297 16.2648L2.668 16.2893L2.73368 16.312L4.36735 11.5864ZM2.25897 10.4505L-0.775465 14.4244L-0.763725 14.4334L-0.751932 14.4423L2.25897 10.4505ZM0.188248 6.36117H-4.81175V6.39826L-4.8112 6.43536L0.188248 6.36117ZM2.25897 1.8932L5.47747 5.7196L5.4899 5.70914L5.50226 5.6986L2.25897 1.8932ZM14.3068 1.02233L12.5425 5.70068L12.5989 5.72198L12.6559 5.7419L14.3068 1.02233ZM15.2104 2.27184H20.2104V2.17245L20.2065 2.07313L15.2104 2.27184ZM14.8716 3.14272L10.993 -0.0126893L10.9033 0.0975901L10.82 0.212789L14.8716 3.14272ZM13.102 3.33204L11.4341 8.04564L11.4733 8.05952L11.5128 8.07275L13.102 3.33204ZM4.59325 3.52136L2.05666 -0.787435L2.04084 -0.778124L2.02509 -0.768697L4.59325 3.52136ZM5.04504 8.82233L2.93458 13.3551L2.97798 13.3753L3.02175 13.3947L5.04504 8.82233ZM7.15342 9.54175L5.89736 14.3814L5.97147 14.4006L6.04615 14.4176L7.15342 9.54175ZM11.9349 10.867L10.0688 15.5057L10.1609 15.5428L10.2544 15.5761L11.9349 10.867ZM14.0433 11.9272L16.9817 7.8817L16.9243 7.84003L16.8658 7.8L14.0433 11.9272ZM16.114 16.2437H21.114V16.2105L21.1136 16.1774L16.114 16.2437ZM13.968 20.5602L10.9018 16.6106L10.8921 16.6182L13.968 20.5602ZM0.86594 20.7874L-1.1744 25.3521L-1.14385 25.3658L-1.11312 25.379L0.86594 20.7874ZM0.263547 20.2951L-3.84024 23.1515L-3.76849 23.2546L-3.69164 23.354L0.263547 20.2951ZM0.338846 18.6291L4.06475 21.9634L4.14319 21.8758L4.21743 21.7845L0.338846 18.6291ZM2.18367 18.5155L0.0447743 23.0349L0.0938085 23.0582L0.143335 23.0803L2.18367 18.5155ZM4.36735 19.235L3.03455 24.054L3.09118 24.0697L3.14817 24.084L4.36735 19.235ZM28.6589 19.6515L30.2481 24.3922L30.388 24.3453L30.5249 24.2902L28.6589 19.6515ZM30.2025 19.8408L26.6569 23.3663L26.7606 23.4705L26.8701 23.5684L30.2025 19.8408ZM29.9389 21.6583L27.9253 17.0817L27.8877 17.0982L27.8504 17.1154L29.9389 21.6583ZM25.9481 22.1505L26.6591 17.2013L26.554 17.1862L26.4484 17.1756L25.9481 22.1505ZM24.4797 21.6583L26.9956 17.3373L26.9918 17.3351L24.4797 21.6583ZM22.7855 8.55728H27.7855V3.55728H22.7855V8.55728ZM19.9995 7.95146H14.9995V8.10667L15.0091 8.26159L19.9995 7.95146ZM20.3006 7.45922L23.3116 11.451L23.5772 11.2506L23.814 11.0168L20.3006 7.45922ZM24.4797 3.33204L27.9931 6.8896L28.0093 6.87363L28.0253 6.85752L24.4797 3.33204ZM25.0068 3.06699V8.06699H25.3642L25.7179 8.01617L25.0068 3.06699ZM25.5716 6.13398H20.5716V11.134H25.5716V6.13398ZM25.5716 8.55728V3.55728H20.5716V8.55728H25.5716ZM26.2869 19.5379L28.8702 15.2569L28.8366 15.2366L28.8028 15.2169L26.2869 19.5379ZM41.4672 5.83107L41.3993 10.8306L41.4333 10.8311H41.4672V5.83107ZM36.0833 6.92913L37.9857 11.5531L38.0364 11.5322L38.0865 11.5103L36.0833 6.92913ZM46.324 7.76214L42.6017 11.1005L42.6288 11.1307L42.6563 11.1604L46.324 7.76214ZM47.9053 11.9272H52.9053V11.8895L52.9047 11.8519L47.9053 11.9272ZM47.4535 21.6961L44.0645 18.0199L43.9846 18.0936L43.908 18.1706L47.4535 21.6961ZM45.0439 19.9165H50.0439V7.40434L41.4209 16.4707L45.0439 19.9165ZM42.8226 21.5447L45.1169 25.9872L45.1641 25.9629L45.2107 25.9375L42.8226 21.5447ZM35.7068 21.0146L32.4106 24.7742L32.4178 24.7805L35.7068 21.0146ZM35.9704 14.0097L32.9341 10.0372L32.9319 10.0389L35.9704 14.0097ZM41.3166 12.6087L41.262 17.6084L41.2893 17.6087H41.3166V12.6087ZM45.0439 12.6087V17.6087H50.0439V12.6087H45.0439ZM44.0274 9.39029L40.704 13.1259L40.7389 13.157L40.7744 13.1874L44.0274 9.39029ZM36.8363 9.23883L35.3637 4.46062L35.3052 4.47866L35.2471 4.49813L36.8363 9.23883ZM35.6315 9.01165L32.086 12.5371L32.1896 12.6414L32.2992 12.7393L35.6315 9.01165ZM35.2551 7.98932H30.2551V8.12732L30.2627 8.2651L35.2551 7.98932ZM40.3377 19.765V14.765H40.3088L40.2799 14.7654L40.3377 19.765ZM43.0109 19.0835L45.4156 23.4672L45.4381 23.4549L45.4605 23.4423L43.0109 19.0835ZM45.0439 17.4932L48.8262 20.7635L50.0439 19.3551V17.4932H45.0439ZM45.0439 14.8806H50.0439V9.88058H45.0439V14.8806ZM38.3047 15.4485L40.2668 20.0474L40.3255 20.0224L40.3834 19.9959L38.3047 15.4485ZM57.3252 8.7466H52.3252V23.763L61.3272 11.744L57.3252 8.7466ZM63.2739 6.24757L59.5647 9.60046L59.7243 9.77709L59.9 9.93775L63.2739 6.24757ZM63.2739 8.21651L66.4508 12.0775L66.5515 11.9946L66.6477 11.9067L63.2739 8.21651ZM57.3252 11.2835L53.1975 8.46178L52.3252 9.73781V11.2835H57.3252ZM54.9157 6.43689L51.2203 3.06871L51.2134 3.07634L51.2065 3.084L54.9157 6.43689ZM75.254 19.6515L76.8432 24.3922L76.9831 24.3453L77.12 24.2902L75.254 19.6515ZM76.7976 19.8408L73.252 23.3663L73.3557 23.4705L73.4652 23.5684L76.7976 19.8408ZM76.534 21.6583L74.5204 17.0817L74.4828 17.0982L74.4455 17.1154L76.534 21.6583ZM72.5432 22.1505L73.2542 17.2013L73.1491 17.1862L73.0435 17.1756L72.5432 22.1505ZM71.0749 21.6583L73.5907 17.3373L73.5869 17.3351L71.0749 21.6583ZM69.3806 8.55728H74.3806V3.55728H69.3806V8.55728ZM66.5946 7.95146H61.5946V8.10667L61.6042 8.26159L66.5946 7.95146ZM66.8958 7.45922L69.9067 11.451L70.1723 11.2506L70.4091 11.0168L66.8958 7.45922ZM71.0749 3.33204L74.5882 6.8896L74.6044 6.87363L74.6204 6.85752L71.0749 3.33204ZM71.6019 3.06699V8.06699H71.9593L72.313 8.01617L71.6019 3.06699ZM72.1667 6.13398H67.1667V11.134H72.1667V6.13398ZM72.1667 8.55728V3.55728H67.1667V8.55728H72.1667ZM72.882 19.5379L75.4653 15.2569L75.4317 15.2366L75.3979 15.2169L72.882 19.5379ZM92.8438 18.7806L95.2184 23.1808L95.2772 23.149L95.3352 23.1157L92.8438 18.7806ZM93.8227 18.4777V23.4777H94.0319L94.2403 23.4602L93.8227 18.4777ZM94.2369 20.8252L91.5561 16.6047L91.5208 16.6271L91.4858 16.6501L94.2369 20.8252ZM83.5444 20.1058L80.1403 23.7681L80.1597 23.7861L80.1794 23.804L83.5444 20.1058ZM81.0972 14.0476L86.0969 14.0978L86.0972 14.0727V14.0476H81.0972ZM83.5444 7.98932L80.1183 4.34766L80.1125 4.3531L83.5444 7.98932ZM89.3424 5.83107L89.2878 10.8308L89.3151 10.8311H89.3424V5.83107ZM92.3544 6.3233L90.4114 10.9303L90.5 10.9677L90.59 11.0017L92.3544 6.3233ZM94.2369 7.2699L91.2985 11.3154L91.4245 11.4069L91.5561 11.4905L94.2369 7.2699ZM92.8438 9.31456L90.4318 13.6943L90.456 13.7077L90.4805 13.7208L92.8438 9.31456ZM89.5683 8.48155V13.4816H89.6242L89.68 13.4803L89.5683 8.48155ZM85.3516 10.034L81.7628 6.55254L81.7617 6.55366L85.3516 10.034ZM85.3516 18.099L81.719 21.5348L81.762 21.5802L81.806 21.6245L85.3516 18.099ZM133.769 11.435L129.851 8.32835L128.769 9.69315V11.435H133.769ZM141.449 9.46602L137.494 12.5249L137.522 12.5611L137.551 12.5969L141.449 9.46602ZM143.595 7.64854L139.732 10.8222L139.749 10.8431L139.766 10.8637L143.595 7.64854ZM141.864 6.3233L139.684 10.8235L139.753 10.8568L139.823 10.8881L141.864 6.3233ZM135.915 6.8534L133.373 2.54762L133.313 2.58308L133.254 2.6202L135.915 6.8534ZM133.769 8.70874H128.769V21.0897L137.367 12.1809L133.769 8.70874ZM133.355 6.39903L129.809 9.92451L129.893 10.0089L129.981 10.0892L133.355 6.39903ZM131.359 6.39903L127.814 2.87355L127.73 2.9579L127.65 3.04614L131.359 6.39903ZM154.446 11.435L150.528 8.32835L149.446 9.69315V11.435H154.446ZM162.127 9.46602L158.171 12.5249L158.199 12.5611L158.228 12.5969L162.127 9.46602ZM164.273 7.64854L160.409 10.8222L160.426 10.8431L160.443 10.8637L164.273 7.64854ZM162.541 6.3233L160.362 10.8235L160.43 10.8568L160.5 10.8881L162.541 6.3233ZM156.592 6.8534L154.05 2.54762L153.99 2.58308L153.931 2.6202L156.592 6.8534ZM154.446 8.70874H149.446V21.0897L158.044 12.1809L154.446 8.70874ZM154.032 6.39903L150.486 9.92451L150.57 10.0089L150.658 10.0892L154.032 6.39903ZM152.036 6.39903L148.491 2.87355L148.407 2.9579L148.327 3.04614L152.036 6.39903ZM174.22 15.0699V10.0699H168.547L169.259 15.6977L174.22 15.0699ZM175.801 18.4019L172.361 22.0301L172.414 22.0807L172.469 22.1296L175.801 18.4019ZM185.703 14.6534L182.157 11.1279L182.073 11.2123L181.994 11.3005L185.703 14.6534ZM184.234 8.17864L180.425 11.4169L180.431 11.4248L180.438 11.4327L184.234 8.17864ZM173.165 8.36796L169.235 5.27679L169.228 5.28613L169.221 5.29551L173.165 8.36796ZM173.467 20.1437L169.859 23.6053L169.89 23.6375L169.921 23.6692L173.467 20.1437ZM182.615 21.8854L183.927 26.7104L184.021 26.6847L184.115 26.6554L182.615 21.8854ZM184.912 20.8252L182.666 16.3582L182.614 16.3844L182.562 16.4118L184.912 20.8252ZM185.213 18.8942L181.668 22.4197L181.76 22.5129L181.858 22.6012L185.213 18.8942ZM184.46 18.5913V23.5913H184.688L184.916 23.5705L184.46 18.5913ZM183.519 18.8563L185.598 23.4037L185.682 23.3651L185.765 23.3233L183.519 18.8563ZM174.784 10.6777L179.223 12.9802L179.235 12.9556L179.248 12.9309L174.784 10.6777ZM181.712 9.2767L178.409 13.0303L178.436 13.054L178.463 13.0773L181.712 9.2767ZM183.331 12.7602V17.7602H188.595L188.324 12.5034L183.331 12.7602ZM174.22 12.7602L169.241 12.2961L168.732 17.7602H174.22V12.7602ZM202.54 18.7806L204.914 23.1808L204.973 23.149L205.031 23.1157L202.54 18.7806ZM195.047 18.099L191.415 21.5348L191.458 21.5802L191.502 21.6245L195.047 18.099ZM195.047 10.034L191.459 6.55254L191.457 6.55366L195.047 10.034ZM199.264 8.48155V13.4816H199.32L199.376 13.4803L199.264 8.48155ZM202.54 9.31456L200.128 13.6943L200.152 13.7077L200.176 13.7208L202.54 9.31456ZM203.933 7.2699L200.994 11.3154L201.12 11.407L201.252 11.4905L203.933 7.2699ZM202.05 6.3233L200.107 10.9303L200.196 10.9677L200.286 11.0017L202.05 6.3233ZM199.038 5.83107L198.984 10.8308L199.011 10.8311H199.038V5.83107ZM193.24 7.98932L189.814 4.34766L189.808 4.3531L193.24 7.98932ZM190.793 14.0476L195.793 14.0978L195.793 14.0727V14.0476H190.793ZM193.24 20.1058L189.836 23.7681L189.856 23.7861L189.875 23.804L193.24 20.1058ZM203.933 20.8252L201.252 16.6046L201.217 16.6271L201.182 16.6501L203.933 20.8252ZM203.518 18.4777V23.4777H203.728L203.936 23.4602L203.518 18.4777ZM217.118 19.6515L218.707 24.3922L218.847 24.3453L218.984 24.2902L217.118 19.6515ZM214.746 19.5379L217.329 15.2569L217.295 15.2366L217.261 15.2169L214.746 19.5379ZM214.03 8.55728V3.55728H209.03V8.55728H214.03ZM214.03 6.13398H209.03V11.134H214.03V6.13398ZM213.466 3.06699V8.06699H213.823L214.177 8.01617L213.466 3.06699ZM212.938 3.33204L216.452 6.8896L216.468 6.87363L216.484 6.85752L212.938 3.33204ZM208.759 7.45922L211.77 11.451L212.036 11.2506L212.273 11.0168L208.759 7.45922ZM208.458 7.95146H203.458V8.10667L203.468 8.26159L208.458 7.95146ZM211.244 8.55728H216.244V3.55728H211.244V8.55728ZM212.938 21.6583L215.454 17.3373L215.45 17.3351L212.938 21.6583ZM214.407 22.1505L215.118 17.2013L215.013 17.1862L214.907 17.1756L214.407 22.1505ZM218.398 21.6583L216.384 17.0817L216.346 17.0982L216.309 17.1154L218.398 21.6583ZM218.661 19.8408L215.116 23.3663L215.219 23.4705L215.329 23.5684L218.661 19.8408ZM8.32822 15.9642C8.32851 15.9365 8.33874 15.676 8.51968 15.3208C8.71052 14.9461 8.97876 14.6877 9.18943 14.548C9.3679 14.4295 9.41244 14.4561 9.17972 14.5078C8.9485 14.5592 8.54078 14.6136 7.90641 14.6136V24.6136C10.1042 24.6136 12.6176 24.2743 14.718 22.8807C17.1656 21.2568 18.2999 18.7191 18.3277 16.0688L8.32822 15.9642ZM9.31885 18.2779C9.59561 18.3943 9.38185 18.363 9.06055 17.9988C8.88447 17.7992 8.6883 17.5118 8.54125 17.1353C8.39247 16.7544 8.32795 16.3689 8.32795 16.0165H18.3279C18.3279 12.0427 15.3241 9.95514 13.1956 9.05995L9.31885 18.2779ZM7.92967 17.8365C8.55066 17.9926 9.00555 18.1466 9.32482 18.2804L13.1896 9.05744C12.3041 8.68638 11.3534 8.38605 10.368 8.1383L7.92967 17.8365ZM5.41605 17.1549C6.25275 17.3916 7.07835 17.6157 7.89278 17.827L10.4049 8.14772C9.66316 7.95521 8.90747 7.75015 8.13779 7.53245L5.41605 17.1549ZM2.73368 16.312C3.62534 16.6202 4.51949 16.9013 5.41605 17.1549L8.13779 7.53245C7.42797 7.33168 6.71574 7.10791 6.00102 6.86083L2.73368 16.312ZM-0.751932 14.4423C0.279292 15.2201 1.41389 15.8163 2.60297 16.2648L6.13173 6.90806C5.71443 6.75068 5.44344 6.5896 5.26988 6.45869L-0.751932 14.4423ZM-4.8112 6.43536C-4.76314 9.67367 -3.33717 12.4683 -0.775465 14.4244L5.29341 6.47655C5.21336 6.41542 5.17896 6.37697 5.17114 6.3678C5.16453 6.36005 5.17341 6.36936 5.18546 6.39316C5.19756 6.41705 5.20108 6.43229 5.20005 6.42792C5.19862 6.4218 5.18906 6.37861 5.1877 6.28697L-4.8112 6.43536ZM-0.959518 -1.93319C-3.47927 0.186246 -4.81175 3.08067 -4.81175 6.36117H5.18825C5.18825 6.10008 5.23401 6.00165 5.2424 5.98355C5.25032 5.96647 5.2914 5.8761 5.47747 5.7196L-0.959518 -1.93319ZM8.20761 -5C4.87143 -5 1.62865 -4.13919 -0.984316 -1.9122L5.50226 5.6986C5.85106 5.40133 6.57404 5 8.20761 5V-5ZM16.0712 -3.65602C13.6133 -4.58299 10.969 -5 8.20761 -5V5C9.9642 5 11.386 5.26455 12.5425 5.70068L16.0712 -3.65602ZM20.2065 2.07313C20.1638 1.0006 19.8646 -0.272144 19.0173 -1.44377C18.1616 -2.62713 17.0235 -3.32445 15.9578 -3.69724L12.6559 5.7419C12.1675 5.57105 11.4687 5.18296 10.9141 4.4161C10.368 3.66098 10.2319 2.91202 10.2144 2.47055L20.2065 2.07313ZM18.7502 6.29813C19.5638 5.29796 20.2104 3.92481 20.2104 2.27184H10.2104C10.2104 1.22471 10.6311 0.432137 10.993 -0.0126893L18.7502 6.29813ZM14.1562 8.55922C16.4256 8.55922 18.0359 7.29958 18.9232 6.07265L10.82 0.212789C11.0326 -0.0812247 11.4148 -0.509796 12.0263 -0.865841C12.6714 -1.24147 13.411 -1.44078 14.1562 -1.44078V8.55922ZM11.5128 8.07275C12.1033 8.27069 13.0766 8.55922 14.1562 8.55922V-1.44078C14.3397 -1.44078 14.4824 -1.42729 14.5728 -1.41593C14.6651 -1.40433 14.7285 -1.39166 14.7578 -1.38536C14.8106 -1.37398 14.7942 -1.37417 14.6913 -1.40867L11.5128 8.07275ZM8.5088 7.61262C9.75099 7.61262 10.7041 7.7873 11.4341 8.04564L14.77 -1.38156C12.7893 -2.08245 10.6802 -2.38738 8.5088 -2.38738V7.61262ZM7.12984 7.83015C7.17981 7.80073 7.53885 7.61262 8.5088 7.61262V-2.38738C6.31619 -2.38738 4.06486 -1.96967 2.05666 -0.787435L7.12984 7.83015ZM8.01196 6.13398C8.01196 6.40544 7.9365 6.82095 7.68482 7.23678C7.44692 7.62984 7.19061 7.79393 7.1614 7.81142L2.02509 -0.768697C-0.344969 0.650092 -1.98803 3.05175 -1.98803 6.13398H8.01196ZM7.1555 4.28956C6.98289 4.20919 7.2187 4.27815 7.50823 4.661C7.65804 4.85909 7.79424 5.10613 7.88801 5.39079C7.98118 5.67364 8.01196 5.93117 8.01196 6.13398H-1.98803C-1.98803 7.76404 -1.48654 9.34574 -0.467761 10.6929C0.499462 11.9718 1.75181 12.8044 2.93458 13.3551L7.1555 4.28956ZM8.40948 4.70209C7.85063 4.55705 7.40993 4.40115 7.06833 4.24999L3.02175 13.3947C3.93514 13.7988 4.90002 14.1226 5.89736 14.3814L8.40948 4.70209ZM10.7473 5.252C9.89512 5.04423 9.06619 4.84882 8.26069 4.66589L6.04615 14.4176C6.79682 14.5881 7.57428 14.7713 8.37865 14.9674L10.7473 5.252ZM13.801 6.22826C12.8155 5.83181 11.7962 5.50772 10.7473 5.252L8.37865 14.9674C8.98636 15.1156 9.54839 15.2963 10.0688 15.5057L13.801 6.22826ZM16.8658 7.8C15.855 7.10874 14.7628 6.56733 13.6154 6.15786L10.2544 15.5761C10.6632 15.722 10.9766 15.8874 11.2208 16.0544L16.8658 7.8ZM21.1136 16.1774C21.0707 12.9423 19.7925 9.92333 16.9817 7.8817L11.1049 15.9727C11.136 15.9953 11.1329 15.9979 11.1144 15.976C11.0951 15.9531 11.0789 15.927 11.0694 15.9073C11.0473 15.8611 11.1098 15.9558 11.1145 16.31L21.1136 16.1774ZM17.0341 24.5097C19.6492 22.4796 21.114 19.5999 21.114 16.2437H11.114C11.114 16.3467 11.1038 16.4011 11.0999 16.4185C11.0964 16.4341 11.0955 16.4317 11.1003 16.4221C11.1049 16.4128 11.1033 16.4201 11.0816 16.4458C11.0587 16.4731 11.0054 16.5303 10.9019 16.6107L17.0341 24.5097ZM8.20761 27.2641C11.379 27.2641 14.4819 26.5012 17.0438 24.5022L10.8921 16.6182C10.5425 16.891 9.80515 17.2641 8.20761 17.2641V27.2641ZM-1.11312 25.379C1.82676 26.6462 4.95098 27.2641 8.20761 27.2641V17.2641C6.24349 17.2641 4.47327 16.8975 2.845 16.1957L-1.11312 25.379ZM-3.69164 23.354C-3.09304 24.128 -2.26582 24.8643 -1.1744 25.3521L2.90628 16.2226C3.54591 16.5085 3.97153 16.9167 4.21874 17.2363L-3.69164 23.354ZM-5 19.4621C-5 20.803 -4.58984 22.0746 -3.84024 23.1515L4.36734 17.4388C4.76553 18.0109 5 18.7271 5 19.4621H-5ZM-3.38706 15.2948C-4.32905 16.3474 -5 17.7809 -5 19.4621H5C5 19.9496 4.9057 20.4448 4.7162 20.9107C4.53014 21.3681 4.28543 21.7168 4.06475 21.9634L-3.38706 15.2948ZM1.09184 13.2126C-1.11202 13.2126 -2.66826 14.4025 -3.53974 15.4737L4.21743 21.7845C4.02329 22.0232 3.67074 22.3855 3.11662 22.692C2.53126 23.0158 1.83395 23.2126 1.09184 23.2126V13.2126ZM4.32258 13.9961C3.56732 13.6387 2.43419 13.2126 1.09184 13.2126V23.2126C0.693316 23.2126 0.402292 23.1475 0.254019 23.1064C0.102436 23.0643 0.0288969 23.0274 0.0447743 23.0349L4.32258 13.9961ZM5.70015 14.4159C5.25045 14.2915 4.89868 14.1855 4.63298 14.0979C4.50139 14.0546 4.40102 14.0191 4.3277 13.9916C4.25242 13.9634 4.22125 13.9495 4.22402 13.9508L0.143335 23.0803C0.958848 23.4448 1.99225 23.7658 3.03455 24.054L5.70015 14.4159ZM7.90641 14.6136C6.84328 14.6136 6.09112 14.5127 5.58653 14.3859L3.14817 24.084C4.65156 24.462 6.25877 24.6136 7.90641 24.6136V14.6136ZM27.0696 14.9107C27.292 14.8362 27.4634 14.8004 27.5506 14.7843C27.6436 14.7671 27.7019 14.7613 27.7133 14.7602C27.7302 14.7585 27.6662 14.765 27.4917 14.765V24.765C28.0607 24.765 29.1779 24.7509 30.2481 24.3922L27.0696 14.9107ZM29.4495 14.5C28.5474 14.5 27.6493 14.6682 26.7928 15.0127L30.5249 24.2902C30.1704 24.4328 29.7994 24.5 29.4495 24.5V14.5ZM33.748 16.3153C32.7466 15.3081 31.2711 14.5 29.4495 14.5V24.5C28.8781 24.5 28.307 24.3774 27.7833 24.1404C27.2735 23.9097 26.9035 23.6142 26.6569 23.3663L33.748 16.3153ZM35.5413 20.7874C35.5413 19.5445 35.2042 17.6055 33.5348 16.1131L26.8701 23.5684C25.6525 22.48 25.5413 21.1721 25.5413 20.7874H35.5413ZM31.9526 26.2348C32.7949 25.8643 33.7624 25.2229 34.5028 24.1524C35.262 23.0549 35.5413 21.8541 35.5413 20.7874H25.5413C25.5413 20.1245 25.7203 19.2708 26.2786 18.4636C26.8183 17.6834 27.4846 17.2756 27.9253 17.0817L31.9526 26.2348ZM27.68 27.2641C29.3123 27.2641 30.8132 26.7594 32.0275 26.2011L27.8504 17.1154C27.6089 17.2264 27.4691 17.2702 27.4202 17.2833C27.3984 17.2891 27.4095 17.2849 27.4504 17.2789C27.4914 17.2729 27.5696 17.2641 27.68 17.2641V27.2641ZM25.237 27.0997C26.0368 27.2146 26.8552 27.2641 27.68 27.2641V17.2641C27.2497 17.2641 26.9136 17.2379 26.6591 17.2013L25.237 27.0997ZM21.9639 25.9792C22.9997 26.5823 24.1705 26.9969 25.4478 27.1254L26.4484 17.1756C26.7217 17.2031 26.9136 17.2896 26.9956 17.3373L21.9639 25.9792ZM17.7855 18.1748C17.7855 21.0554 18.8639 24.1779 21.9677 25.9814L26.9918 17.3351C27.1121 17.405 27.256 17.5119 27.3959 17.662C27.5362 17.8125 27.6379 17.9693 27.7055 18.1083C27.8363 18.3772 27.7855 18.4623 27.7855 18.1748H17.7855ZM17.7855 8.55728V18.1748H27.7855V8.55728H17.7855ZM20.6018 13.5573H22.7855V3.55728H20.6018V13.5573ZM15.0091 8.26159C15.0655 9.17009 15.3672 10.668 16.6233 11.9313C17.935 13.2505 19.5272 13.5573 20.6018 13.5573V3.55728C21.3 3.55728 22.6035 3.76309 23.7144 4.88035C24.7698 5.94172 24.9585 7.13671 24.9898 7.64132L15.0091 8.26159ZM17.2897 3.46743C16.397 4.14078 14.9995 5.61611 14.9995 7.95146H24.9995C24.9995 9.93341 23.8027 11.0806 23.3116 11.451L17.2897 3.46743ZM20.9664 -0.225525L16.7873 3.90166L23.814 11.0168L27.9931 6.8896L20.9664 -0.225525ZM25.0068 -1.93301C23.0269 -1.93301 21.6516 -0.914923 20.9342 -0.193438L28.0253 6.85752C27.6593 7.2256 26.6354 8.06699 25.0068 8.06699V-1.93301ZM29.334 0.105797C27.9996 -1.57167 26.0157 -2.1293 24.2958 -1.88219L25.7179 8.01617C25.1564 8.09684 24.3775 8.09359 23.5248 7.78175C22.6475 7.46092 21.9727 6.91531 21.508 6.3311L29.334 0.105797ZM30.5716 3.67282C30.5716 2.4806 30.2067 1.20287 29.334 0.105797L21.508 6.3311C20.8361 5.48645 20.5716 4.51164 20.5716 3.67282H30.5716ZM30.5716 6.13398V3.67282H20.5716V6.13398H30.5716ZM29.073 1.13398H25.5716V11.134H29.073V1.13398ZM33.4845 2.94928C32.2246 1.68224 30.6136 1.13398 29.073 1.13398V11.134C28.7046 11.134 28.2331 11.073 27.722 10.8719C27.2018 10.6671 26.7515 10.3604 26.3934 10.0002L33.4845 2.94928ZM35.2778 7.34563C35.2778 5.82042 34.7422 4.21415 33.4845 2.94928L26.3934 10.0002C26.0352 9.64005 25.7337 9.19067 25.5334 8.6759C25.3368 8.17062 25.2778 7.70639 25.2778 7.34563H35.2778ZM33.4845 11.742C34.7422 10.4771 35.2778 8.87084 35.2778 7.34563H25.2778C25.2778 6.98488 25.3368 6.52065 25.5334 6.01536C25.7337 5.5006 26.0352 5.05121 26.3934 4.69103L33.4845 11.742ZM29.073 13.5573C30.6136 13.5573 32.2246 13.009 33.4845 11.742L26.3934 4.69103C26.7515 4.33088 27.2018 4.02415 27.722 3.8194C28.2332 3.61826 28.7046 3.55728 29.073 3.55728V13.5573ZM25.5716 13.5573H29.073V3.55728H25.5716V13.5573ZM30.5716 17.9476V8.55728H20.5716V17.9476H30.5716ZM28.8028 15.2169C29.5155 15.6319 30.0259 16.2485 30.3103 16.8809C30.5632 17.443 30.5716 17.8634 30.5716 17.9476H20.5716C20.5716 19.6838 21.1555 22.3359 23.7711 23.8588L28.8028 15.2169ZM27.4917 14.765C27.426 14.765 27.5132 14.7591 27.7029 14.7948C27.874 14.8271 28.3277 14.9296 28.8702 15.2569L23.7037 23.8189C25.1607 24.6981 26.707 24.765 27.4917 24.765V14.765ZM41.5352 0.83153C38.9527 0.796433 36.4529 1.31043 34.0802 2.34794L38.0865 11.5103C39.1775 11.0333 40.267 10.8152 41.3993 10.8306L41.5352 0.83153ZM50.0463 4.42379C47.7508 1.86429 44.6546 0.831068 41.4672 0.831068V10.8311C41.9973 10.8311 42.2778 10.9128 42.3965 10.9601C42.494 10.9988 42.544 11.0361 42.6017 11.1005L50.0463 4.42379ZM52.9047 11.8519C52.8631 9.08578 51.9464 6.47359 49.9917 4.36388L42.6563 11.1604C42.7598 11.272 42.8974 11.4365 42.9059 12.0025L52.9047 11.8519ZM52.9053 20.7117V11.9272H42.9053V20.7117H52.9053ZM50.8426 25.3723C52.0765 24.2347 52.9053 22.6099 52.9053 20.7117H42.9053C42.9053 20.217 43.0085 19.6783 43.2481 19.1563C43.4835 18.6432 43.7937 18.2695 44.0645 18.0199L50.8426 25.3723ZM46.437 27.1126C48.1314 27.1126 49.7579 26.4698 50.9991 25.2216L43.908 18.1706C44.2077 17.8692 44.6061 17.5828 45.0966 17.3818C45.5846 17.1819 46.0507 17.1126 46.437 17.1126V27.1126ZM41.9125 25.2216C43.0851 26.4009 44.6711 27.1126 46.437 27.1126V17.1126C46.8793 17.1126 47.374 17.1977 47.8675 17.4076C48.3571 17.616 48.7342 17.8997 49.0037 18.1706L41.9125 25.2216ZM40.0439 20.7117C40.0439 22.461 40.7404 24.0428 41.9125 25.2216L49.0037 18.1706C49.2733 18.4418 49.5523 18.8181 49.7563 19.3029C49.9616 19.791 50.0439 20.278 50.0439 20.7117H40.0439ZM40.0439 19.9165V20.7117H50.0439V19.9165H40.0439ZM45.2107 25.9375C46.4605 25.2581 47.6611 24.4199 48.6669 23.3624L41.4209 16.4707C41.3223 16.5743 41.0421 16.8215 40.4346 17.1518L45.2107 25.9375ZM39.2836 27.2641C41.233 27.2641 43.2664 26.9429 45.1169 25.9872L40.5283 17.1021C40.5301 17.1012 40.4503 17.1428 40.2453 17.1844C40.0377 17.2266 39.7249 17.2641 39.2836 17.2641V27.2641ZM32.4178 24.7805C34.4014 26.5129 36.8111 27.2641 39.2836 27.2641V17.2641C39.056 17.2641 38.9661 17.2317 38.9654 17.2314C38.9632 17.2307 38.9708 17.2333 38.9827 17.2403C38.9947 17.2473 38.9996 17.2519 38.9959 17.2486L32.4178 24.7805ZM29.2385 17.6447C29.2385 20.3647 30.27 22.8974 32.4106 24.7742L39.0031 17.255C39.0111 17.2619 39.042 17.2908 39.0817 17.3444C39.122 17.3987 39.1596 17.4628 39.1894 17.5312C39.2534 17.6782 39.2385 17.7428 39.2385 17.6447H29.2385ZM32.9319 10.0389C30.4584 11.9316 29.2385 14.655 29.2385 17.6447H39.2385C39.2385 17.5723 39.2452 17.554 39.2402 17.578C39.2347 17.6041 39.2196 17.6598 39.1853 17.7317C39.1507 17.8043 39.1084 17.8688 39.0665 17.9195C39.0257 17.9688 39.0001 17.9873 39.0089 17.9805L32.9319 10.0389ZM41.3713 7.60904C38.4435 7.57703 35.4034 8.14984 32.9341 10.0372L39.0067 17.9822C39.0474 17.9511 39.5714 17.59 41.262 17.6084L41.3713 7.60904ZM45.0439 7.60874H41.3166V17.6087H45.0439V7.60874ZM40.0439 12.3437V12.6087H50.0439V12.3437H40.0439ZM40.7744 13.1874C40.3318 12.8082 40.1335 12.3989 40.062 12.1913C40.0024 12.0181 40.0439 12.0302 40.0439 12.3437H50.0439C50.0439 10.3051 49.5615 7.54745 47.2804 5.59319L40.7744 13.1874ZM40.9401 13.5194C41.1217 13.5194 41.2499 13.5289 41.3318 13.5387C41.4141 13.5485 41.4354 13.5569 41.4087 13.5493C41.3551 13.5342 41.0556 13.4387 40.704 13.1259L47.3508 5.65467C45.3662 3.88904 42.8664 3.51942 40.9401 3.51942V13.5194ZM38.309 14.017C39.5555 13.6329 40.4089 13.5194 40.9401 13.5194V3.51942C39.112 3.51942 37.2295 3.88557 35.3637 4.46062L38.309 14.017ZM36.2716 14.3146C36.829 14.3146 37.5965 14.2575 38.4256 13.9795L35.2471 4.49813C35.775 4.32117 36.166 4.31456 36.2716 4.31456V14.3146ZM32.2992 12.7393C32.9892 13.3561 34.3461 14.3146 36.2716 14.3146V4.31456C37.7955 4.31456 38.7257 5.07105 38.9639 5.28399L32.2992 12.7393ZM30.2627 8.2651C30.3272 9.43286 30.6928 11.136 32.086 12.5371L39.1771 5.48617C40.1185 6.43296 40.2331 7.45452 40.2474 7.71354L30.2627 8.2651ZM34.181 2.30518C33.3598 2.64301 32.342 3.23671 31.522 4.28632C30.6478 5.40525 30.2551 6.71677 30.2551 7.98932H40.2551C40.2551 8.78226 40.0003 9.67727 39.4022 10.4428C38.8583 11.139 38.2547 11.4424 37.9857 11.5531L34.181 2.30518ZM40.2799 14.7654C39.6773 14.7723 40.1591 14.6262 40.8847 15.1713C41.2943 15.4792 41.634 15.9039 41.845 16.3845C42.0424 16.834 42.0622 17.1814 42.0622 17.3039H32.0622C32.0622 19.3227 32.7949 21.6011 34.8776 23.166C36.695 24.5316 38.8145 24.783 40.3955 24.7647L40.2799 14.7654ZM40.6061 14.6998C40.5222 14.7458 40.4593 14.765 40.3377 14.765V24.765C42.1237 24.765 43.8429 24.3299 45.4156 23.4672L40.6061 14.6998ZM41.2617 14.2229C41.2256 14.2647 41.0431 14.4539 40.5612 14.7247L45.4605 23.4423C46.6854 22.7539 47.8583 21.8829 48.8262 20.7635L41.2617 14.2229ZM40.0439 14.8806V17.4932H50.0439V14.8806H40.0439ZM41.7308 19.8806H45.0439V9.88058H41.7308V19.8806ZM40.3834 19.9959C40.3048 20.0319 40.353 19.9962 40.6001 19.9553C40.8424 19.9151 41.2104 19.8806 41.7308 19.8806V9.88058C39.9387 9.88058 37.9816 10.0985 36.2259 10.9012L40.3834 19.9959ZM42.0622 17.3039C42.0622 17.664 41.9679 18.3016 41.5274 18.9595C41.0912 19.6108 40.5552 19.9244 40.2668 20.0474L36.3425 10.8496C35.2259 11.3261 34.0686 12.1256 33.2183 13.3953C32.3636 14.6717 32.0622 16.0602 32.0622 17.3039H42.0622ZM62.182 0.831068C58.2978 0.831068 55.3547 3.03698 53.3233 5.74922L61.3272 11.744C61.7731 11.1487 62.0844 10.9191 62.2047 10.8468C62.2851 10.7986 62.2522 10.8311 62.182 10.8311V0.831068ZM62.3326 0.831068H62.182V10.8311H62.3326V0.831068ZM66.9831 2.89468C65.7778 1.5613 64.1133 0.831068 62.3326 0.831068V10.8311C61.8924 10.8311 61.3671 10.7465 60.827 10.5075C60.2862 10.2682 59.8662 9.93403 59.5647 9.60046L66.9831 2.89468ZM68.688 7.23204C68.688 5.54959 68.0488 3.83839 66.6477 2.5574L59.9 9.93775C59.5324 9.60164 59.2011 9.15771 58.9757 8.62184C58.754 8.09497 58.688 7.60681 58.688 7.23204H68.688ZM66.6477 11.9067C68.0488 10.6257 68.688 8.91448 68.688 7.23204H58.688C58.688 6.85727 58.754 6.36911 58.9757 5.84224C59.2011 5.30637 59.5324 4.86244 59.9 4.52633L66.6477 11.9067ZM62.2573 13.5573C63.6663 13.5573 65.1693 13.1319 66.4508 12.0775L60.0969 4.35555C60.4298 4.08167 60.8141 3.8686 61.2234 3.73138C61.6254 3.59664 61.9839 3.55728 62.2573 3.55728V13.5573ZM62.1067 13.5573H62.2573V3.55728H62.1067V13.5573ZM62.0191 13.5478C62.0155 13.5501 62.0078 13.5544 61.9973 13.5591C61.9868 13.5637 61.9789 13.5662 61.976 13.567C61.9732 13.5677 61.9802 13.5655 61.9995 13.563C62.0191 13.5605 62.0541 13.5573 62.1067 13.5573V3.55728C60.2191 3.55728 58.3652 4.03313 56.6975 5.08136L62.0191 13.5478ZM61.4529 14.1052C61.6306 13.8453 61.8149 13.6761 62.0191 13.5478L56.6975 5.08136C55.2953 5.9627 54.1243 7.10611 53.1975 8.46178L61.4529 14.1052ZM62.3252 20.7117V11.2835H52.3252V20.7117H62.3252ZM60.4566 25.2216C61.6288 24.0428 62.3252 22.461 62.3252 20.7117H52.3252C52.3252 20.278 52.4076 19.791 52.6129 19.3029C52.8168 18.8181 53.0959 18.4418 53.3655 18.1706L60.4566 25.2216ZM55.9322 27.1126C57.6981 27.1126 59.284 26.4009 60.4566 25.2216L53.3655 18.1706C53.6349 17.8997 54.0121 17.616 54.5017 17.4076C54.9952 17.1977 55.4899 17.1126 55.9322 17.1126V27.1126ZM51.4077 25.2216C52.5803 26.4009 54.1663 27.1126 55.9322 27.1126V17.1126C56.3745 17.1126 56.8692 17.1977 57.3627 17.4076C57.8523 17.616 58.2295 17.8997 58.4989 18.1706L51.4077 25.2216ZM49.5392 20.7117C49.5392 22.461 50.2356 24.0428 51.4077 25.2216L58.4989 18.1706C58.7685 18.4418 59.0476 18.8181 59.2515 19.3029C59.4568 19.791 59.5392 20.278 59.5392 20.7117H49.5392ZM49.5392 7.42136V20.7117H59.5392V7.42136H49.5392ZM51.2065 3.084C50.114 4.29251 49.5392 5.81967 49.5392 7.42136H59.5392C59.5392 7.79481 59.4752 8.22822 59.3034 8.67729C59.1313 9.12729 58.8864 9.50044 58.6249 9.78978L51.2065 3.084ZM55.9322 0.982524C54.0915 0.982524 52.4217 1.75069 51.2203 3.06871L58.611 9.80507C58.3342 10.1088 57.9386 10.4278 57.4172 10.6609C56.8934 10.895 56.3761 10.9825 55.9322 10.9825V0.982524ZM60.4566 2.87355C59.284 1.69426 57.6981 0.982524 55.9322 0.982524V10.9825C55.4899 10.9825 54.9952 10.8975 54.5017 10.6875C54.0121 10.4792 53.6349 10.1954 53.3655 9.92451L60.4566 2.87355ZM62.3252 7.42136C62.3252 5.7427 61.6965 4.12046 60.4566 2.87355L53.3655 9.92451C53.0656 9.62287 52.7841 9.22545 52.5875 8.74018C52.3922 8.25796 52.3252 7.79934 52.3252 7.42136H62.3252ZM62.3252 8.7466V7.42136H52.3252V8.7466H62.3252ZM73.6647 14.9107C73.8871 14.8362 74.0585 14.8004 74.1457 14.7843C74.2387 14.7671 74.297 14.7613 74.3084 14.7602C74.3253 14.7585 74.2613 14.765 74.0868 14.765V24.765C74.6558 24.765 75.773 24.7509 76.8432 24.3922L73.6647 14.9107ZM76.0446 14.5C75.1425 14.5 74.2444 14.6682 73.3879 15.0127L77.12 24.2902C76.7655 24.4328 76.3945 24.5 76.0446 24.5V14.5ZM80.3431 16.3153C79.3417 15.3081 77.8662 14.5 76.0446 14.5V24.5C75.4732 24.5 74.9021 24.3774 74.3784 24.1404C73.8686 23.9097 73.4986 23.6142 73.252 23.3663L80.3431 16.3153ZM82.1364 20.7874C82.1364 19.5445 81.7993 17.6055 80.1299 16.1131L73.4652 23.5684C72.2476 22.4799 72.1364 21.172 72.1364 20.7874H82.1364ZM78.5477 26.2348C79.39 25.8642 80.3575 25.2228 81.098 24.1524C81.8571 23.0548 82.1364 21.8541 82.1364 20.7874H72.1364C72.1364 20.1246 72.3153 19.2709 72.8737 18.4637C73.4134 17.6835 74.0797 17.2756 74.5204 17.0817L78.5477 26.2348ZM74.2751 27.2641C75.9074 27.2641 77.4083 26.7594 78.6226 26.2011L74.4455 17.1154C74.204 17.2264 74.0642 17.2702 74.0153 17.2833C73.9935 17.2891 74.0046 17.2849 74.0455 17.2789C74.0865 17.2729 74.1647 17.2641 74.2751 17.2641V27.2641ZM71.8321 27.0997C72.6319 27.2146 73.4503 27.2641 74.2751 27.2641V17.2641C73.8448 17.2641 73.5087 17.2379 73.2542 17.2013L71.8321 27.0997ZM68.559 25.9792C69.5948 26.5823 70.7656 26.9969 72.0429 27.1254L73.0435 17.1756C73.3168 17.2031 73.5087 17.2896 73.5907 17.3373L68.559 25.9792ZM64.3806 18.1748C64.3806 21.0554 65.459 24.1779 68.5628 25.9814L73.5869 17.3351C73.7072 17.405 73.8511 17.5119 73.991 17.662C74.1313 17.8125 74.233 17.9693 74.3006 18.1083C74.4314 18.3772 74.3806 18.4623 74.3806 18.1748H64.3806ZM64.3806 8.55728V18.1748H74.3806V8.55728H64.3806ZM67.1969 13.5573H69.3806V3.55728H67.1969V13.5573ZM61.6042 8.26159C61.6606 9.1701 61.9623 10.668 63.2184 11.9313C64.5301 13.2505 66.1223 13.5573 67.1969 13.5573V3.55728C67.8951 3.55728 69.1986 3.76309 70.3095 4.88034C71.3649 5.94171 71.5536 7.13669 71.5849 7.64132L61.6042 8.26159ZM63.8848 3.46743C62.9922 4.14071 61.5946 5.61603 61.5946 7.95146H71.5946C71.5946 9.93349 70.3977 11.0806 69.9067 11.451L63.8848 3.46743ZM67.5615 -0.225523L63.3824 3.90166L70.4091 11.0168L74.5882 6.8896L67.5615 -0.225523ZM71.6019 -1.93301C69.622 -1.93301 68.2467 -0.91491 67.5293 -0.193438L74.6204 6.85752C74.2544 7.22559 73.2305 8.06699 71.6019 8.06699V-1.93301ZM75.9291 0.105797C74.5947 -1.57168 72.6108 -2.12929 70.8909 -1.88219L72.313 8.01617C71.7515 8.09684 70.9726 8.09359 70.12 7.78176C69.2427 7.46093 68.5678 6.91532 68.1031 6.3311L75.9291 0.105797ZM77.1667 3.67282C77.1667 2.48064 76.8018 1.2029 75.9291 0.105797L68.1031 6.3311C67.4312 5.48642 67.1667 4.5116 67.1667 3.67282H77.1667ZM77.1667 6.13398V3.67282H67.1667V6.13398H77.1667ZM75.6681 1.13398H72.1667V11.134H75.6681V1.13398ZM80.0796 2.94928C78.8197 1.68223 77.2087 1.13398 75.6681 1.13398V11.134C75.2997 11.134 74.8283 11.073 74.3172 10.8719C73.7969 10.6671 73.3466 10.3604 72.9885 10.0002L80.0796 2.94928ZM81.8729 7.34563C81.8729 5.82044 81.3373 4.21417 80.0796 2.94928L72.9885 10.0002C72.6303 9.64005 72.3288 9.19065 72.1285 8.67589C71.9319 8.1706 71.8729 7.70638 71.8729 7.34563H81.8729ZM80.0796 11.742C81.3373 10.4771 81.8729 8.87082 81.8729 7.34563H71.8729C71.8729 6.98489 71.9319 6.52066 72.1285 6.01538C72.3288 5.50061 72.6303 5.05121 72.9885 4.69103L80.0796 11.742ZM75.6681 13.5573C77.2087 13.5573 78.8197 13.009 80.0796 11.742L72.9885 4.69103C73.3466 4.33087 73.7969 4.02414 74.3172 3.8194C74.8283 3.61826 75.2997 3.55728 75.6681 3.55728V13.5573ZM72.1667 13.5573H75.6681V3.55728H72.1667V13.5573ZM77.1667 17.9476V8.55728H67.1667V17.9476H77.1667ZM75.3979 15.2169C76.1106 15.6319 76.621 16.2485 76.9054 16.8809C77.1583 17.443 77.1667 17.8634 77.1667 17.9476H67.1667C67.1667 19.6838 67.7507 22.3359 70.3662 23.8588L75.3979 15.2169ZM74.0868 14.765C74.0211 14.765 74.1083 14.7591 74.298 14.7948C74.4691 14.8271 74.9228 14.9296 75.4653 15.2569L70.2988 23.8189C71.7559 24.6981 73.3021 24.765 74.0868 24.765V14.765ZM90.4693 14.3804C90.16 14.5473 89.8829 14.6136 89.5683 14.6136V24.6136C91.5629 24.6136 93.4695 24.1245 95.2184 23.1808L90.4693 14.3804ZM93.8227 13.4777C92.3961 13.4777 91.2096 13.9529 90.3525 14.4455L95.3352 23.1157C95.1809 23.2044 94.647 23.4777 93.8227 23.4777V13.4777ZM98.492 15.7009C97.4443 14.4131 95.6724 13.3051 93.4051 13.4951L94.2403 23.4602C93.5369 23.5192 92.785 23.3974 92.0866 23.0629C91.4198 22.7436 90.9851 22.3194 90.7348 22.0117L98.492 15.7009ZM99.9522 19.8408C99.9522 18.3843 99.4872 16.9242 98.492 15.7009L90.7348 22.0117C90.4889 21.7095 90.2804 21.3466 90.1397 20.9379C90.0003 20.5329 89.9522 20.1549 89.9522 19.8408H99.9522ZM96.9177 25.0458C97.94 24.3965 99.9522 22.7509 99.9522 19.8408H89.9522C89.9522 18.8102 90.3222 17.9718 90.7284 17.4128C91.0937 16.9101 91.457 16.6676 91.5561 16.6047L96.9177 25.0458ZM89.3424 27.2641C92.0897 27.2641 94.6845 26.5181 96.9879 25.0004L91.4858 16.6501C90.8777 17.0508 90.2095 17.2641 89.3424 17.2641V27.2641ZM80.1794 23.804C82.7477 26.141 85.9066 27.2641 89.3424 27.2641V17.2641C88.2101 17.2641 87.5037 16.9484 86.9094 16.4076L80.1794 23.804ZM76.0974 13.9974C76.0598 17.7387 77.3385 21.1638 80.1403 23.7681L86.9485 16.4436C86.4371 15.9682 86.0843 15.3545 86.0969 14.0978L76.0974 13.9974ZM80.1125 4.3531C77.3607 6.95022 76.0972 10.3456 76.0972 14.0476H86.0972C86.0972 12.7515 86.4651 12.108 86.9763 11.6255L80.1125 4.3531ZM89.3971 0.831367C85.9103 0.793252 82.6959 1.92257 80.1183 4.34766L86.9705 11.631C87.5052 11.1279 88.1562 10.8184 89.2878 10.8308L89.3971 0.831367ZM94.2974 1.71626C92.6908 1.03872 90.9606 0.831068 89.3424 0.831068V10.8311C89.741 10.8311 90.0243 10.8581 90.2114 10.8887C90.3996 10.9194 90.4521 10.9475 90.4114 10.9303L94.2974 1.71626ZM97.1753 3.22442C96.2235 2.53314 95.1415 2.03067 94.1188 1.64495L90.59 11.0017C90.8619 11.1042 91.0541 11.1903 91.1812 11.2542C91.3118 11.3199 91.3389 11.3447 91.2985 11.3154L97.1753 3.22442ZM99.9522 8.29223C99.9522 5.46283 98.078 3.78637 96.9177 3.04933L91.5561 11.4905C91.4252 11.4074 91.0448 11.1453 90.6767 10.6192C90.2686 10.036 89.9522 9.22934 89.9522 8.29223H99.9522ZM98.3393 12.5731C99.4839 11.294 99.9522 9.74536 99.9522 8.29223H89.9522C89.9522 7.98099 89.9995 7.57608 90.16 7.12778C90.3235 6.6709 90.5745 6.2542 90.8875 5.90452L98.3393 12.5731ZM93.9357 14.6175C96.169 14.6175 97.6414 13.3529 98.3393 12.5731L90.8875 5.90452C91.1335 5.62959 92.1542 4.61748 93.9357 4.61748V14.6175ZM90.4805 13.7208C91.4283 14.2291 92.5996 14.6175 93.9357 14.6175V4.61748C94.569 4.61748 95.0124 4.80386 95.2072 4.90837L90.4805 13.7208ZM89.68 13.4803C89.8707 13.476 90.0973 13.5101 90.4318 13.6943L95.2559 4.93485C93.4819 3.95786 91.525 3.43658 89.4566 3.4828L89.68 13.4803ZM88.9404 13.5154C88.9278 13.5283 88.9088 13.5445 88.8879 13.558C88.8676 13.5711 88.8631 13.5703 88.8862 13.5618C88.9348 13.5439 89.1359 13.4816 89.5683 13.4816V3.48155C86.772 3.48155 83.9345 4.31386 81.7628 6.55254L88.9404 13.5154ZM88.8832 14.0476C88.8832 13.7032 88.9335 13.5465 88.946 13.5125C88.9524 13.4948 88.9542 13.4948 88.9483 13.5042C88.9423 13.5138 88.9378 13.5181 88.9415 13.5143L81.7617 6.55366C79.7143 8.6655 78.8832 11.3389 78.8832 14.0476H88.8832ZM88.9841 14.6633C88.9698 14.6481 88.9643 14.6426 88.9511 14.6063C88.9332 14.5569 88.8832 14.3908 88.8832 14.0476H78.8832C78.8832 16.7598 79.7147 19.4157 81.719 21.5348L88.9841 14.6633ZM89.5683 14.6136C89.1236 14.6136 88.9091 14.5509 88.8489 14.5293C88.8095 14.5151 88.8503 14.5265 88.8971 14.5736L81.806 21.6245C83.9845 23.8154 86.807 24.6136 89.5683 24.6136V14.6136ZM112.472 31C121.914 31 129.52 23.3099 129.52 13.8835H119.52C119.52 17.8407 116.337 21 112.472 21V31ZM95.4239 13.8835C95.4239 23.3099 103.03 31 112.472 31V21C108.606 21 105.424 17.8406 105.424 13.8835H95.4239ZM112.472 -3.23301C103.03 -3.23301 95.4239 4.45713 95.4239 13.8835H105.424C105.424 9.92634 108.606 6.76699 112.472 6.76699V-3.23301ZM129.52 13.8835C129.52 4.45713 121.914 -3.23301 112.472 -3.23301V6.76699C116.337 6.76699 119.52 9.92634 119.52 13.8835H129.52ZM112.472 25.5072C115.926 25.5072 119.02 23.964 121.104 21.5546L113.54 15.0132C113.268 15.3282 112.89 15.5072 112.472 15.5072V25.5072ZM103.766 21.4689C105.851 23.9273 108.977 25.5072 112.472 25.5072V15.5072C112.049 15.5072 111.667 15.324 111.394 15.0021L103.766 21.4689ZM109.611 22.8043C112.068 21.7124 113.777 19.247 113.777 16.3876H103.777C103.777 15.1782 104.503 14.1317 105.549 13.6666L109.611 22.8043ZM113.777 16.3876C113.777 12.5377 110.666 9.36816 106.769 9.36816V19.3682C105.09 19.3682 103.777 18.0069 103.777 16.3876H113.777ZM106.769 9.36816C105.906 9.36816 105.068 9.52697 104.291 9.82102L107.832 19.1731C107.496 19.3005 107.135 19.3682 106.769 19.3682V9.36816ZM101.046 14.045C101.046 14.3116 101.055 14.5766 101.074 14.8397L111.05 14.1544C111.048 14.1188 111.046 14.0824 111.046 14.045H101.046ZM109.435 2.99357C104.586 4.33291 101.046 8.78063 101.046 14.045H111.046C111.046 13.3595 111.505 12.7963 112.097 12.6326L109.435 2.99357ZM105.917 6.59339C105.778 7.14803 105.705 7.72405 105.705 8.3099H115.705C115.705 8.55289 115.675 8.79602 115.615 9.03279L105.917 6.59339ZM105.705 8.3099C105.705 12.1598 108.816 15.3293 112.713 15.3293V5.32932C114.392 5.32932 115.705 6.69062 115.705 8.3099H105.705ZM112.713 15.3293C116.61 15.3293 119.721 12.1598 119.721 8.3099H109.721C109.721 6.69057 111.034 5.32932 112.713 5.32932V15.3293ZM119.721 8.3099C119.721 7.92625 119.69 7.54616 119.629 7.17297L109.76 8.78666C109.734 8.62829 109.721 8.46874 109.721 8.3099H119.721ZM123.897 14.045C123.897 9.11779 120.796 4.90946 116.432 3.29158L112.956 12.6681C113.499 12.8693 113.897 13.4056 113.897 14.045H123.897ZM123.861 14.9575C123.885 14.6553 123.897 14.351 123.897 14.045H113.897C113.897 14.0883 113.896 14.1299 113.892 14.1699L123.861 14.9575ZM121.039 10.0553C120.118 9.61356 119.088 9.36816 118.014 9.36816V19.3682C117.558 19.3682 117.113 19.2631 116.715 19.0722L121.039 10.0553ZM118.014 9.36816C114.117 9.36816 111.006 12.5377 111.006 16.3876H121.006C121.006 18.0069 119.693 19.3682 118.014 19.3682V9.36816ZM111.006 16.3876C111.006 19.4047 112.908 21.9844 115.59 22.9746L119.053 13.5933C120.2 14.0164 121.006 15.112 121.006 16.3876H111.006ZM115.59 22.9746C116.352 23.2556 117.171 23.407 118.014 23.407V13.407C118.371 13.407 118.723 13.4714 119.053 13.5933L115.59 22.9746ZM118.014 23.407C121.911 23.407 125.022 20.2375 125.022 16.3876H115.022C115.022 14.7682 116.335 13.407 118.014 13.407V23.407ZM125.022 16.3876C125.022 13.599 123.395 11.1852 121.039 10.0553L116.715 19.0722C115.713 18.5915 115.022 17.567 115.022 16.3876H125.022ZM121.104 21.5546C122.655 19.7615 123.663 17.4718 123.861 14.9574L113.892 14.1701C113.867 14.4923 113.741 14.7813 113.54 15.0132L121.104 21.5546ZM119.629 7.1731C119.086 3.8567 116.22 1.29048 112.713 1.29048V11.2905C111.2 11.2905 109.988 10.1864 109.76 8.78654L119.629 7.1731ZM112.713 1.29048C109.41 1.29048 106.678 3.56667 105.917 6.59339L115.615 9.03279C115.294 10.3094 114.138 11.2905 112.713 11.2905V1.29048ZM112.472 2.58291C111.427 2.58291 110.407 2.72492 109.435 2.99357L112.097 12.6326C112.211 12.6012 112.335 12.5829 112.472 12.5829V2.58291ZM116.432 3.29158C115.192 2.83187 113.855 2.58291 112.472 2.58291V12.5829C112.651 12.5829 112.811 12.6143 112.956 12.6681L116.432 3.29158ZM104.291 9.82104C101.638 10.8256 99.7612 13.3907 99.7612 16.3876H109.761C109.761 17.6547 108.965 18.744 107.832 19.1731L104.291 9.82104ZM99.7612 16.3876C99.7612 20.2375 102.872 23.407 106.769 23.407V13.407C108.448 13.407 109.761 14.7682 109.761 16.3876H99.7612ZM106.769 23.407C107.772 23.407 108.737 23.1931 109.611 22.8043L105.549 13.6666C105.928 13.4984 106.344 13.407 106.769 13.407V23.407ZM101.074 14.8397C101.247 17.3596 102.233 19.6603 103.766 21.4689L111.394 15.0021C111.196 14.7686 111.072 14.4785 111.05 14.1544L101.074 14.8397ZM138.852 3.44369C134.964 3.44369 131.973 5.65194 129.851 8.32835L137.687 14.5416C138.202 13.8917 138.576 13.6099 138.762 13.5006C138.91 13.4134 138.917 13.4437 138.852 13.4437V3.44369ZM145.405 6.40719C143.592 4.06359 140.951 3.44369 138.852 3.44369V13.4437C139.003 13.4437 138.868 13.4677 138.574 13.352C138.237 13.2196 137.826 12.954 137.494 12.5249L145.405 6.40719ZM147.24 12.1922C147.24 10.3199 146.816 8.16327 145.348 6.33514L137.551 12.5969C137.353 12.3509 137.269 12.1331 137.24 12.0325C137.215 11.9453 137.24 11.9803 137.24 12.1922H147.24ZM147.24 20.7117V12.1922H137.24V20.7117H147.24ZM146.2 18.1706C146.469 18.4418 146.748 18.8182 146.952 19.303C147.158 19.791 147.24 20.278 147.24 20.7117H137.24C137.24 22.4609 137.936 24.0428 139.109 25.2216L146.2 18.1706ZM143.633 17.1126C144.075 17.1126 144.57 17.1977 145.064 17.4076C145.553 17.616 145.93 17.8997 146.2 18.1706L139.109 25.2216C140.281 26.4009 141.867 27.1126 143.633 27.1126V17.1126ZM141.066 18.1706C141.336 17.8997 141.713 17.616 142.203 17.4077C142.696 17.1977 143.191 17.1126 143.633 17.1126V27.1126C145.399 27.1126 146.985 26.4009 148.158 25.2216L141.066 18.1706ZM140.026 20.7117C140.026 20.278 140.109 19.7909 140.314 19.3029C140.518 18.8181 140.797 18.4418 141.066 18.1706L148.158 25.2216C149.33 24.0429 150.026 22.4611 150.026 20.7117H140.026ZM140.026 11.8893V20.7117H150.026V11.8893H140.026ZM139.766 10.8637C139.859 10.9736 140.026 11.1994 140.026 11.8893H150.026C150.026 9.19675 149.24 6.5953 147.425 4.43335L139.766 10.8637ZM139.823 10.8881C139.815 10.8844 139.793 10.8728 139.766 10.8526C139.74 10.8326 139.729 10.8184 139.732 10.8222L147.459 4.4749C146.497 3.30318 145.298 2.3816 143.904 1.75854L139.823 10.8881ZM139.228 10.8311C139.521 10.8311 139.697 10.8538 139.778 10.8691C139.86 10.8843 139.812 10.8852 139.684 10.8235L144.043 1.82313C142.457 1.05518 140.758 0.831068 139.228 0.831068V10.8311ZM138.457 11.1592C139.047 10.8105 139.28 10.8311 139.228 10.8311V0.831068C137.068 0.831068 135.092 1.53318 133.373 2.54762L138.457 11.1592ZM137.367 12.1809C138.076 11.4461 138.468 11.1544 138.576 11.0866L133.254 2.6202C132.157 3.30965 131.119 4.2549 130.171 5.23656L137.367 12.1809ZM128.769 7.42136V8.70874H138.769V7.42136H128.769ZM129.981 10.0892C129.579 9.72166 129.247 9.25384 129.031 8.7212C128.822 8.20425 128.769 7.74425 128.769 7.42136H138.769C138.769 5.81587 138.197 4.05182 136.729 2.70886L129.981 10.0892ZM132.376 10.9825C131.934 10.9825 131.439 10.8975 130.945 10.6875C130.456 10.4792 130.079 10.1954 129.809 9.92451L136.9 2.87355C135.728 1.69428 134.142 0.982524 132.376 0.982524V10.9825ZM134.905 9.92451C134.605 10.226 134.207 10.5124 133.716 10.7134C133.228 10.9133 132.762 10.9825 132.376 10.9825V0.982524C130.681 0.982524 129.055 1.62531 127.814 2.87355L134.905 9.92451ZM135.983 7.42136C135.983 7.74323 135.932 8.1493 135.769 8.59077C135.604 9.03834 135.358 9.43169 135.069 9.75192L127.65 3.04614C126.5 4.31899 125.983 5.88505 125.983 7.42136H135.983ZM135.983 20.7117V7.42136H125.983V20.7117H135.983ZM134.943 18.1706C135.212 18.4418 135.491 18.8182 135.695 19.303C135.9 19.791 135.983 20.278 135.983 20.7117H125.983C125.983 22.4609 126.679 24.0428 127.851 25.2216L134.943 18.1706ZM132.376 17.1126C132.818 17.1126 133.313 17.1977 133.806 17.4076C134.296 17.616 134.673 17.8997 134.943 18.1706L127.851 25.2216C129.024 26.4009 130.61 27.1126 132.376 27.1126V17.1126ZM129.809 18.1706C130.079 17.8997 130.456 17.616 130.945 17.4077C131.439 17.1977 131.934 17.1126 132.376 17.1126V27.1126C134.142 27.1126 135.728 26.4009 136.9 25.2216L129.809 18.1706ZM128.769 20.7117C128.769 20.278 128.851 19.791 129.057 19.303C129.26 18.8182 129.54 18.4418 129.809 18.1706L136.9 25.2216C138.072 24.0428 138.769 22.4609 138.769 20.7117H128.769ZM128.769 11.435V20.7117H138.769V11.435H128.769ZM159.529 3.44369C155.642 3.44369 152.651 5.65194 150.528 8.32835L158.364 14.5416C158.879 13.8917 159.253 13.6099 159.439 13.5006C159.587 13.4134 159.594 13.4437 159.529 13.4437V3.44369ZM166.082 6.40719C164.269 4.06359 161.628 3.44369 159.529 3.44369V13.4437C159.68 13.4437 159.545 13.4677 159.251 13.352C158.914 13.2196 158.503 12.954 158.171 12.5249L166.082 6.40719ZM167.917 12.1922C167.917 10.3199 167.493 8.16327 166.025 6.33514L158.228 12.5969C158.031 12.3509 157.947 12.1331 157.917 12.0325C157.892 11.9453 157.917 11.9803 157.917 12.1922H167.917ZM167.917 20.7117V12.1922H157.917V20.7117H167.917ZM166.877 18.1706C167.147 18.4418 167.426 18.8182 167.63 19.303C167.835 19.791 167.917 20.278 167.917 20.7117H157.917C157.917 22.4609 158.614 24.0428 159.786 25.2216L166.877 18.1706ZM164.31 17.1126C164.753 17.1126 165.247 17.1977 165.741 17.4076C166.23 17.616 166.607 17.8997 166.877 18.1706L159.786 25.2216C160.958 26.4009 162.544 27.1126 164.31 27.1126V17.1126ZM161.744 18.1706C162.013 17.8997 162.39 17.616 162.88 17.4077C163.373 17.1977 163.868 17.1126 164.31 17.1126V27.1126C166.076 27.1126 167.662 26.4009 168.835 25.2216L161.744 18.1706ZM160.703 20.7117C160.703 20.278 160.786 19.7909 160.991 19.3029C161.195 18.8181 161.474 18.4418 161.744 18.1706L168.835 25.2216C170.007 24.0429 170.703 22.4611 170.703 20.7117H160.703ZM160.703 11.8893V20.7117H170.703V11.8893H160.703ZM160.443 10.8637C160.536 10.9736 160.703 11.1994 160.703 11.8893H170.703C170.703 9.19675 169.917 6.5953 168.102 4.43335L160.443 10.8637ZM160.5 10.8881C160.492 10.8844 160.47 10.8728 160.443 10.8526C160.417 10.8326 160.406 10.8184 160.409 10.8222L168.136 4.4749C167.174 3.30318 165.975 2.3816 164.581 1.75854L160.5 10.8881ZM159.905 10.8311C160.198 10.8311 160.374 10.8538 160.456 10.8691C160.537 10.8843 160.489 10.8852 160.362 10.8235L164.72 1.82313C163.134 1.05518 161.435 0.831068 159.905 0.831068V10.8311ZM159.134 11.1592C159.724 10.8105 159.957 10.8311 159.905 10.8311V0.831068C157.745 0.831068 155.769 1.53318 154.05 2.54762L159.134 11.1592ZM158.044 12.1809C158.753 11.4461 159.145 11.1544 159.253 11.0866L153.931 2.6202C152.834 3.30965 151.796 4.2549 150.848 5.23656L158.044 12.1809ZM149.446 7.42136V8.70874H159.446V7.42136H149.446ZM150.658 10.0892C150.256 9.72166 149.924 9.25384 149.708 8.7212C149.499 8.20425 149.446 7.74425 149.446 7.42136H159.446C159.446 5.81587 158.875 4.05182 157.406 2.70886L150.658 10.0892ZM153.053 10.9825C152.611 10.9825 152.116 10.8975 151.623 10.6875C151.133 10.4792 150.756 10.1955 150.486 9.92451L157.577 2.87355C156.405 1.69424 154.819 0.982524 153.053 0.982524V10.9825ZM155.582 9.92451C155.282 10.226 154.884 10.5123 154.393 10.7133C153.905 10.9133 153.439 10.9825 153.053 10.9825V0.982524C151.359 0.982524 149.732 1.62535 148.491 2.87355L155.582 9.92451ZM156.66 7.42136C156.66 7.74323 156.609 8.1493 156.446 8.59077C156.281 9.03834 156.035 9.43169 155.746 9.75192L148.327 3.04614C147.177 4.31899 146.66 5.88505 146.66 7.42136H156.66ZM156.66 20.7117V7.42136H146.66V20.7117H156.66ZM155.62 18.1706C155.889 18.4418 156.168 18.8182 156.372 19.303C156.578 19.791 156.66 20.278 156.66 20.7117H146.66C146.66 22.4609 147.356 24.0428 148.529 25.2216L155.62 18.1706ZM153.053 17.1126C153.495 17.1126 153.99 17.1977 154.484 17.4077C154.973 17.616 155.35 17.8997 155.62 18.1706L148.529 25.2216C149.701 26.4009 151.287 27.1126 153.053 27.1126V17.1126ZM150.486 18.1706C150.756 17.8997 151.133 17.616 151.623 17.4076C152.116 17.1977 152.611 17.1126 153.053 17.1126V27.1126C154.819 27.1126 156.405 26.4009 157.577 25.2216L150.486 18.1706ZM149.446 20.7117C149.446 20.278 149.528 19.791 149.734 19.303C149.938 18.8182 150.217 18.4418 150.486 18.1706L157.577 25.2216C158.75 24.0428 159.446 22.4609 159.446 20.7117H149.446ZM149.446 11.435V20.7117H159.446V11.435H149.446ZM169.259 15.6977C169.556 18.0438 170.516 20.2813 172.361 22.0301L179.241 14.7737C179.244 14.7768 179.252 14.7846 179.26 14.7952C179.267 14.8057 179.268 14.8093 179.264 14.8005C179.256 14.7848 179.21 14.6822 179.18 14.4422L169.259 15.6977ZM184.724 10.0699H174.22V20.0699H184.724V10.0699ZM181.994 11.3005C182.327 10.9318 182.771 10.5952 183.312 10.3649C183.845 10.1383 184.341 10.0699 184.724 10.0699V20.0699C186.423 20.0699 188.138 19.4157 189.412 18.0063L181.994 11.3005ZM181.117 13.6689C181.117 13.2353 181.199 12.7483 181.405 12.2602C181.608 11.7755 181.888 11.3991 182.157 11.1279L189.248 18.1789C190.42 17 191.117 15.4182 191.117 13.6689H181.117ZM180.438 11.4327C180.809 11.8652 181.117 12.4902 181.117 13.6689H191.117C191.117 10.4554 190.17 7.42027 188.031 4.92459L180.438 11.4327ZM178.775 10.8311C179.822 10.8311 180.169 11.1163 180.425 11.4169L188.044 4.94041C185.639 2.11085 182.347 0.831068 178.775 0.831068V10.8311ZM177.095 11.4591C177.355 11.1285 177.69 10.8311 178.775 10.8311V0.831068C175.041 0.831068 171.636 2.22494 169.235 5.27679L177.095 11.4591ZM176.396 14.0476C176.396 12.677 176.734 11.9232 177.11 11.4404L169.221 5.29551C167.237 7.84185 166.396 10.8745 166.396 14.0476H176.396ZM177.075 16.6821C176.842 16.4394 176.396 15.8038 176.396 14.0476H166.396C166.396 17.5419 167.331 20.9703 169.859 23.6053L177.075 16.6821ZM179.378 17.2641C177.793 17.2641 177.241 16.8488 177.012 16.6182L169.921 23.6692C172.503 26.2657 175.892 27.2641 179.378 27.2641V17.2641ZM181.304 17.0605C180.902 17.1698 180.281 17.2641 179.378 17.2641V27.2641C180.934 27.2641 182.472 27.106 183.927 26.7104L181.304 17.0605ZM181.499 16.964C181.404 17.0117 181.279 17.0644 181.116 17.1155L184.115 26.6554C184.755 26.4541 185.383 26.2038 185.991 25.8981L181.499 16.964ZM182.562 16.4118C182.163 16.6247 181.809 16.8082 181.499 16.964L185.991 25.8981C186.384 25.7005 186.808 25.4802 187.262 25.2387L182.562 16.4118ZM180.59 19.6515C180.59 19.2513 180.674 18.582 181.09 17.8614C181.522 17.1135 182.128 16.6288 182.666 16.3582L187.158 25.2923C188.148 24.7945 189.093 24.0006 189.75 22.8614C190.392 21.7495 190.59 20.607 190.59 19.6515H180.59ZM181.858 22.6012C181.611 22.3777 181.284 22.0131 181.018 21.4798C180.743 20.9253 180.59 20.2971 180.59 19.6515H190.59C190.59 17.6577 189.618 16.1374 188.569 15.1872L181.858 22.6012ZM184.916 23.5705C184.284 23.6282 183.619 23.5398 182.99 23.2868C182.381 23.0418 181.947 22.7 181.668 22.4197L188.759 15.3687C187.665 14.2688 186.005 13.4292 184.005 13.612L184.916 23.5705ZM185.765 23.3233C185.696 23.3581 185.224 23.5913 184.46 23.5913V13.5913C183.145 13.5913 182.045 14.0011 181.273 14.3893L185.765 23.3233ZM179.491 24.6136C181.581 24.6136 183.675 24.2825 185.598 23.4037L181.44 14.3089C181.154 14.4398 180.562 14.6136 179.491 14.6136V24.6136ZM172.469 22.1296C174.525 23.9683 177.064 24.6136 179.491 24.6136V14.6136C179.139 14.6136 178.983 14.5674 178.961 14.5603C178.952 14.5573 178.971 14.5629 179.009 14.5843C179.047 14.6061 179.091 14.6366 179.133 14.6743L172.469 22.1296ZM178.775 3.21651C177.094 3.21651 175.36 3.6007 173.779 4.576C172.198 5.55076 171.077 6.92647 170.321 8.42442L179.248 12.9309C179.288 12.8515 179.298 12.8526 179.259 12.8978C179.216 12.9467 179.139 13.0192 179.028 13.0876C178.917 13.156 178.816 13.1931 178.751 13.2101C178.69 13.2259 178.69 13.2165 178.775 13.2165V3.21651ZM185.015 5.5231C183.224 3.94669 181.041 3.21651 178.775 3.21651V13.2165C178.837 13.2165 178.789 13.2246 178.677 13.1845C178.625 13.1655 178.571 13.1402 178.52 13.1099C178.469 13.0798 178.432 13.0509 178.409 13.0303L185.015 5.5231ZM188.324 12.5034C188.187 9.83517 187.128 7.32896 184.961 5.4761L178.463 13.0773C178.457 13.0723 178.434 13.0514 178.405 13.0137C178.376 12.9755 178.352 12.935 178.335 12.8985C178.319 12.8629 178.316 12.8465 178.319 12.8593C178.322 12.8733 178.333 12.923 178.337 13.017L188.324 12.5034ZM174.22 17.7602H183.331V7.76019H174.22V17.7602ZM170.346 8.37516C169.686 9.64749 169.362 10.9957 169.241 12.2961L179.198 13.2243C179.227 12.9092 179.28 12.869 179.223 12.9802L170.346 8.37516ZM199.264 24.6136C201.259 24.6136 203.165 24.1245 204.914 23.1808L200.165 14.3804C199.856 14.5473 199.579 14.6136 199.264 14.6136V24.6136ZM191.502 21.6245C193.68 23.8154 196.503 24.6136 199.264 24.6136V14.6136C198.819 14.6136 198.605 14.5509 198.545 14.5293C198.505 14.5151 198.546 14.5265 198.593 14.5736L191.502 21.6245ZM188.579 14.0476C188.579 16.7598 189.411 19.4157 191.415 21.5348L198.68 14.6633C198.666 14.6481 198.66 14.6426 198.647 14.6063C198.629 14.5569 198.579 14.3908 198.579 14.0476H188.579ZM191.457 6.55366C189.41 8.6655 188.579 11.3389 188.579 14.0476H198.579C198.579 13.7032 198.629 13.5465 198.642 13.5125C198.648 13.4948 198.65 13.4948 198.644 13.5042C198.638 13.5138 198.634 13.5181 198.637 13.5143L191.457 6.55366ZM199.264 3.48155C196.468 3.48155 193.63 4.31386 191.459 6.55254L198.636 13.5154C198.624 13.5283 198.605 13.5445 198.584 13.558C198.563 13.5711 198.559 13.5703 198.582 13.5618C198.631 13.5439 198.832 13.4816 199.264 13.4816V3.48155ZM204.952 4.93485C203.178 3.95786 201.221 3.43658 199.152 3.4828L199.376 13.4803C199.566 13.476 199.793 13.5101 200.128 13.6943L204.952 4.93485ZM203.631 4.61748C204.265 4.61748 204.708 4.80385 204.903 4.90837L200.176 13.7208C201.124 14.2292 202.295 14.6175 203.631 14.6175V4.61748ZM200.583 5.90452C200.829 5.62954 201.85 4.61748 203.631 4.61748V14.6175C205.865 14.6175 207.337 13.353 208.035 12.5731L200.583 5.90452ZM199.648 8.29223C199.648 7.98103 199.695 7.57613 199.856 7.12783C200.019 6.67095 200.27 6.25422 200.583 5.90452L208.035 12.5731C209.18 11.294 209.648 9.74528 209.648 8.29223H199.648ZM201.252 11.4905C201.121 11.4074 200.741 11.1453 200.372 10.6192C199.964 10.0359 199.648 9.22932 199.648 8.29223H209.648C209.648 5.46283 207.774 3.78636 206.613 3.0493L201.252 11.4905ZM200.286 11.0017C200.558 11.1042 200.75 11.1903 200.877 11.2542C201.008 11.3199 201.035 11.3447 200.994 11.3154L206.871 3.22442C205.919 2.53314 204.837 2.03067 203.815 1.64495L200.286 11.0017ZM199.038 10.8311C199.437 10.8311 199.72 10.8581 199.907 10.8887C200.095 10.9194 200.148 10.9475 200.107 10.9303L203.993 1.71626C202.387 1.03872 200.656 0.831068 199.038 0.831068V10.8311ZM196.666 11.631C197.201 11.1279 197.852 10.8184 198.984 10.8308L199.093 0.831367C195.606 0.793252 192.392 1.92258 189.814 4.34766L196.666 11.631ZM195.793 14.0476C195.793 12.7515 196.161 12.1081 196.672 11.6255L189.808 4.3531C187.057 6.9502 185.793 10.3456 185.793 14.0476H195.793ZM196.644 16.4436C196.133 15.9682 195.78 15.3545 195.793 14.0978L185.793 13.9974C185.756 17.7387 187.034 21.1638 189.836 23.7681L196.644 16.4436ZM199.038 17.2641C197.906 17.2641 197.199 16.9484 196.605 16.4076L189.875 23.804C192.443 26.141 195.602 27.2641 199.038 27.2641V17.2641ZM201.182 16.6501C200.573 17.0508 199.905 17.2641 199.038 17.2641V27.2641C201.785 27.2641 204.38 26.5181 206.684 25.0004L201.182 16.6501ZM199.648 19.8408C199.648 18.8102 200.018 17.9719 200.424 17.4128C200.789 16.9101 201.153 16.6676 201.252 16.6046L206.613 25.0458C207.636 24.3965 209.648 22.7509 209.648 19.8408H199.648ZM200.431 22.0117C200.185 21.7095 199.976 21.3466 199.835 20.9379C199.696 20.5328 199.648 20.1549 199.648 19.8408H209.648C209.648 18.3844 209.183 16.9243 208.188 15.7009L200.431 22.0117ZM203.936 23.4602C203.233 23.5192 202.481 23.3974 201.783 23.063C201.116 22.7437 200.681 22.3195 200.431 22.0117L208.188 15.7009C207.14 14.413 205.368 13.3051 203.101 13.4951L203.936 23.4602ZM205.031 23.1157C204.877 23.2043 204.343 23.4777 203.518 23.4777V13.4777C202.092 13.4777 200.905 13.9529 200.048 14.4455L205.031 23.1157ZM215.95 24.765C216.519 24.765 217.637 24.7509 218.707 24.3922L215.528 14.9107C215.751 14.8362 215.922 14.8004 216.009 14.7843C216.102 14.7672 216.161 14.7613 216.172 14.7602C216.189 14.7585 216.125 14.765 215.95 14.765V24.765ZM212.162 23.8189C213.619 24.6981 215.166 24.765 215.95 24.765V14.765C215.885 14.765 215.972 14.7591 216.162 14.7948C216.333 14.8271 216.786 14.9295 217.329 15.2569L212.162 23.8189ZM209.03 17.9476C209.03 19.6838 209.614 22.3359 212.23 23.8588L217.261 15.2169C217.974 15.6319 218.485 16.2485 218.769 16.8809C219.022 17.443 219.03 17.8634 219.03 17.9476H209.03ZM209.03 8.55728V17.9476H219.03V8.55728H209.03ZM217.532 3.55728H214.03V13.5573H217.532V3.55728ZM214.852 4.69103C215.21 4.33089 215.66 4.02415 216.181 3.81941C216.692 3.61826 217.163 3.55728 217.532 3.55728V13.5573C219.072 13.5573 220.683 13.009 221.943 11.742L214.852 4.69103ZM213.736 7.34563C213.736 6.98485 213.795 6.52061 213.992 6.01532C214.192 5.50056 214.494 5.05119 214.852 4.69103L221.943 11.742C223.201 10.4771 223.736 8.87091 223.736 7.34563H213.736ZM214.852 10.0002C214.494 9.64007 214.192 9.1907 213.992 8.67594C213.795 8.17066 213.736 7.70642 213.736 7.34563H223.736C223.736 5.82035 223.201 4.21411 221.943 2.94928L214.852 10.0002ZM217.532 11.134C217.163 11.134 216.692 11.073 216.181 10.8719C215.66 10.6671 215.21 10.3604 214.852 10.0002L221.943 2.94928C220.683 1.68225 219.072 1.13398 217.532 1.13398V11.134ZM214.03 11.134H217.532V1.13398H214.03V11.134ZM209.03 3.67282V6.13398H219.03V3.67282H209.03ZM209.967 6.3311C209.295 5.4863 209.03 4.51143 209.03 3.67282H219.03C219.03 2.48081 218.665 1.20302 217.793 0.105797L209.967 6.3311ZM214.177 8.01617C213.615 8.09684 212.836 8.09358 211.984 7.78177C211.106 7.46096 210.431 6.91537 209.967 6.3311L217.793 0.105797C216.458 -1.57173 214.474 -2.12928 212.754 -1.88219L214.177 8.01617ZM216.484 6.85752C216.118 7.22554 215.094 8.06699 213.466 8.06699V-1.93301C211.485 -1.93301 210.11 -0.914857 209.393 -0.193438L216.484 6.85752ZM212.273 11.0168L216.452 6.8896L209.425 -0.225526L205.246 3.90166L212.273 11.0168ZM213.458 7.95146C213.458 9.93338 212.261 11.0806 211.77 11.451L205.748 3.46743C204.856 4.1408 203.458 5.61613 203.458 7.95146H213.458ZM209.061 3.55728C209.759 3.55728 211.062 3.76309 212.173 4.88038C213.229 5.94176 213.417 7.13674 213.449 7.64132L203.468 8.26159C203.524 9.17006 203.826 10.6679 205.082 11.9313C206.394 13.2505 207.986 13.5573 209.061 13.5573V3.55728ZM211.244 3.55728H209.061V13.5573H211.244V3.55728ZM216.244 18.1748V8.55728H206.244V18.1748H216.244ZM215.45 17.3351C215.571 17.405 215.715 17.5119 215.855 17.662C215.995 17.8125 216.097 17.9693 216.164 18.1083C216.295 18.3772 216.244 18.4623 216.244 18.1748H206.244C206.244 21.0554 207.323 24.1779 210.426 25.9814L215.45 17.3351ZM214.907 17.1756C215.18 17.2031 215.372 17.2896 215.454 17.3373L210.423 25.9792C211.458 26.5823 212.629 26.9969 213.906 27.1254L214.907 17.1756ZM216.139 17.2641C215.708 17.2641 215.372 17.2379 215.118 17.2013L213.696 27.0997C214.495 27.2146 215.314 27.2641 216.139 27.2641V17.2641ZM216.309 17.1154C216.068 17.2264 215.928 17.2702 215.879 17.2833C215.857 17.2891 215.868 17.2849 215.909 17.2789C215.95 17.2729 216.028 17.2641 216.139 17.2641V27.2641C217.771 27.2641 219.272 26.7594 220.486 26.2011L216.309 17.1154ZM214 20.7874C214 20.1246 214.179 19.2709 214.737 18.4637C215.277 17.6835 215.943 17.2756 216.384 17.0817L220.411 26.2348C221.254 25.8642 222.221 25.2228 222.962 24.1524C223.721 23.0548 224 21.8541 224 20.7874H214ZM215.329 23.5684C214.111 22.4799 214 21.1719 214 20.7874H224C224 19.5446 223.663 17.6055 221.994 16.1131L215.329 23.5684ZM217.908 24.5C217.337 24.5 216.766 24.3774 216.242 24.1404C215.732 23.9097 215.362 23.6142 215.116 23.3663L222.207 16.3153C221.205 15.3081 219.73 14.5 217.908 14.5V24.5ZM218.984 24.2902C218.629 24.4328 218.258 24.5 217.908 24.5V14.5C217.006 14.5 216.108 14.6682 215.251 15.0127L218.984 24.2902Z" fill="#301269" fill-opacity="0.1" mask="url(#path-1-inside-1)"/>
</svg>
